<?xml version="1.0" standalone="no"?>
<!DOCTYPE svg PUBLIC "-//W3C//DTD SVG 20010904//EN"
 "http://www.w3.org/TR/2001/REC-SVG-20010904/DTD/svg10.dtd">
<svg version="1.0" xmlns="http://www.w3.org/2000/svg"
  viewBox="0 0 1386.000000 770.000000"
 preserveAspectRatio="xMidYMid meet">
<metadata>
Created by potrace 1.16, written by Peter Selinger 2001-2019
</metadata>
<g transform="translate(0.000000,770.000000) scale(0.100000,-0.100000)"
fill="currentColor" stroke="none">
<path d="M5113 7175 c0 -22 2 -30 4 -17 2 12 2 30 0 40 -3 9 -5 -1 -4 -23z"/>
<path d="M4121 7165 c1 -33 2 -36 8 -15 l7 24 17 -24 c9 -13 17 -19 17 -12 0
7 -11 25 -25 40 l-25 27 1 -40z"/>
<path d="M4330 7173 c0 -18 2 -33 4 -33 9 0 13 39 5 51 -6 10 -9 4 -9 -18z"/>
<path d="M4431 7168 c-1 -35 1 -38 27 -37 23 2 24 2 5 6 -27 5 -30 20 -5 26
15 4 15 5 0 6 -9 0 -19 9 -21 19 -3 9 -5 0 -6 -20z"/>
<path d="M4912 7168 c-2 -32 1 -38 17 -38 11 0 22 4 25 9 4 5 -3 7 -13 4 -16
-4 -20 1 -24 29 l-4 33 -1 -37z"/>
<path d="M5290 7165 c0 -30 3 -35 23 -34 18 1 19 2 4 6 -15 4 -18 12 -15 34 3
16 1 29 -4 29 -4 0 -8 -16 -8 -35z"/>
<path d="M5339 7168 c4 -28 6 -29 9 -9 2 13 0 27 -5 32 -6 6 -7 -3 -4 -23z"/>
<path d="M4290 7167 c0 -14 4 -28 8 -31 9 -5 8 41 -1 51 -4 3 -7 -5 -7 -20z"/>
<path d="M4560 7161 c0 -24 4 -31 20 -31 13 0 20 7 20 19 0 11 6 22 13 24 7 3
5 6 -5 6 -12 1 -18 -6 -18 -19 0 -11 -5 -20 -11 -20 -6 0 -9 9 -6 20 3 11 1
23 -4 26 -5 3 -9 -9 -9 -25z"/>
<path d="M4190 7161 c0 -11 3 -22 8 -24 4 -3 7 6 7 19 0 13 -3 24 -7 24 -5 0
-8 -9 -8 -19z"/>
<path d="M4250 7154 c0 -28 15 -25 23 6 3 13 0 20 -9 20 -8 0 -14 -10 -14 -26z"/>
<path d="M4367 7159 c4 -13 8 -18 11 -10 2 7 -1 18 -6 23 -8 8 -9 4 -5 -13z"/>
<path d="M4502 7155 c0 -16 2 -22 5 -12 2 9 2 23 0 30 -3 6 -5 -1 -5 -18z"/>
<path d="M4532 7160 c0 -14 2 -19 5 -12 2 6 2 18 0 25 -3 6 -5 1 -5 -13z"/>
<path d="M4664 7165 c3 -21 16 -31 16 -12 0 9 -4 18 -9 21 -5 4 -8 -1 -7 -9z"/>
<path d="M4697 7173 c-4 -3 -7 -13 -7 -22 1 -13 3 -13 11 2 11 19 8 33 -4 20z"/>
<path d="M4732 7155 c0 -16 2 -22 5 -12 2 9 2 23 0 30 -3 6 -5 -1 -5 -18z"/>
<path d="M4756 7171 c-10 -15 5 -41 22 -41 13 0 13 2 -3 13 -10 8 -15 19 -11
25 4 7 5 12 2 12 -3 0 -7 -4 -10 -9z"/>
<path d="M4816 7172 c-9 -14 10 -42 28 -42 8 0 8 2 0 8 -7 4 -13 16 -16 27 -2
15 -6 17 -12 7z"/>
<path d="M4980 7161 c0 -11 4 -22 9 -25 4 -3 6 6 3 19 -5 30 -12 33 -12 6z"/>
<path d="M5017 7159 c4 -13 8 -18 11 -10 2 7 -1 18 -6 23 -8 8 -9 4 -5 -13z"/>
<path d="M5040 7163 c0 -12 5 -25 11 -28 16 -11 17 -2 2 25 -12 24 -13 24 -13
3z"/>
<path d="M5082 7155 c0 -16 2 -22 5 -12 2 9 2 23 0 30 -3 6 -5 -1 -5 -18z"/>
<path d="M5146 7167 c3 -10 9 -15 12 -12 3 3 0 11 -7 18 -10 9 -11 8 -5 -6z"/>
<path d="M5204 7165 c-7 -17 3 -35 19 -34 9 0 9 2 1 5 -7 3 -10 14 -7 24 6 23
-5 27 -13 5z"/>
<path d="M5363 7165 c-3 -9 -3 -18 -1 -21 3 -3 8 4 11 16 6 23 -1 27 -10 5z"/>
<path d="M5401 7162 c-1 -14 3 -21 9 -17 6 4 19 1 28 -6 14 -11 15 -11 5 0 -6
7 -9 21 -5 30 5 13 3 14 -10 3 -13 -10 -17 -10 -21 0 -3 7 -6 3 -6 -10z"/>
<path d="M5466 7167 c3 -10 9 -15 12 -12 3 3 0 11 -7 18 -10 9 -11 8 -5 -6z"/>
<path d="M5491 7153 c1 -22 2 -23 6 -8 3 11 10 23 17 27 7 5 5 8 -6 8 -13 0
-18 -7 -17 -27z"/>
<path d="M4231 7154 c0 -11 3 -14 6 -6 3 7 2 16 -1 19 -3 4 -6 -2 -5 -13z"/>
<path d="M5540 7160 c8 -5 20 -10 25 -10 6 0 3 5 -5 10 -8 5 -19 10 -25 10 -5
0 -3 -5 5 -10z"/>
<path d="M5548 7133 c7 -3 16 -2 19 1 4 3 -2 6 -13 5 -11 0 -14 -3 -6 -6z"/>
<path d="M4593 7053 c9 -2 25 -2 35 0 9 3 1 5 -18 5 -19 0 -27 -2 -17 -5z"/>
<path d="M5018 7053 c7 -3 16 -2 19 1 4 3 -2 6 -13 5 -11 0 -14 -3 -6 -6z"/>
<path d="M6571 6838 c0 -10 -7 -18 -15 -18 -7 0 -16 -9 -19 -20 -4 -15 0 -20
15 -20 11 0 16 4 12 11 -3 6 -1 15 6 19 6 4 10 16 7 26 -4 17 -5 17 -6 2z"/>
<path d="M4557 6798 c-7 -21 5 -49 18 -44 9 3 13 -10 13 -48 0 -29 3 -63 7
-75 4 -15 3 -26 -5 -31 -18 -11 2 -18 30 -9 21 6 21 7 5 8 -17 1 -18 3 -5 11
13 9 13 12 -2 20 -9 6 -15 17 -12 24 3 8 0 17 -6 21 -9 6 -9 9 1 15 10 7 10
12 0 23 -9 12 -9 16 1 20 10 3 8 10 -7 27 -11 13 -15 20 -8 17 6 -4 15 -2 19
4 4 8 3 9 -5 5 -6 -4 -14 0 -17 8 -7 19 -21 21 -27 4z"/>
<path d="M5039 6788 c-4 -72 -3 -130 2 -183 4 -36 2 -66 -5 -75 -8 -12 -8 -13
4 -3 10 10 13 38 11 118 -2 70 1 105 8 105 6 0 11 14 11 30 0 36 -29 43 -31 8z"/>
<path d="M3882 6767 c-12 -13 -22 -27 -22 -31 0 -5 9 3 21 18 11 14 25 23 30
20 6 -3 5 -12 -3 -22 -9 -12 -6 -11 10 2 12 11 22 21 22 24 0 3 -3 2 -7 -1 -3
-4 -11 -2 -18 3 -8 7 -18 3 -33 -13z"/>
<path d="M6096 6774 c-10 -25 -7 -32 15 -39 12 -4 18 -12 15 -21 -3 -8 -1 -14
3 -14 5 0 12 7 15 15 4 11 -3 19 -19 25 -29 11 -34 35 -6 27 14 -3 18 -1 14 9
-7 19 -29 18 -37 -2z"/>
<path d="M6340 6779 c0 -5 5 -7 10 -4 6 3 10 8 10 11 0 2 -4 4 -10 4 -5 0 -10
-5 -10 -11z"/>
<path d="M5507 6773 c-3 -5 8 -8 24 -9 15 -1 26 3 23 7 -6 11 -41 12 -47 2z"/>
<path d="M5971 6568 l-1 -218 -229 0 c-212 0 -262 -6 -230 -26 8 -4 9 -3 5 4
-10 17 165 16 183 0 11 -10 13 -10 7 0 -6 9 24 12 133 12 l141 0 0 185 c0 165
2 185 18 194 11 7 13 10 3 11 -11 0 -11 3 -1 15 11 13 10 14 -3 9 -10 -3 -17
1 -20 13 -3 10 -5 -80 -6 -199z"/>
<path d="M5790 6742 c0 -17 3 -33 8 -35 9 -6 8 50 -1 60 -4 3 -7 -8 -7 -25z"/>
<path d="M5491 6740 c-2 -31 48 -55 63 -31 3 4 -6 6 -19 3 -19 -3 -27 1 -34
19 -6 14 -10 18 -10 9z"/>
<path d="M5614 6725 c0 -14 4 -25 8 -25 4 0 8 11 8 25 0 14 -4 25 -8 25 -4 0
-8 -11 -8 -25z"/>
<path d="M5650 6708 c0 -23 2 -39 5 -36 9 9 12 78 3 78 -4 0 -8 -19 -8 -42z"/>
<path d="M5692 6725 c0 -16 2 -22 5 -12 2 9 2 23 0 30 -3 6 -5 -1 -5 -18z"/>
<path d="M5720 6739 c0 -5 4 -9 9 -9 5 0 17 -7 25 -16 12 -11 16 -12 16 -2 0
7 -11 18 -25 25 -14 6 -25 7 -25 2z"/>
<path d="M5833 6734 c-3 -8 -2 -19 3 -24 5 -5 9 1 9 16 0 28 -3 30 -12 8z"/>
<path d="M5875 6725 c0 -13 3 -21 8 -18 4 2 7 10 7 18 0 8 -3 16 -7 18 -5 3
-8 -5 -8 -18z"/>
<path d="M5912 6725 c0 -16 2 -22 5 -12 2 9 2 23 0 30 -3 6 -5 -1 -5 -18z"/>
<path d="M5952 6725 c0 -16 2 -22 5 -12 2 9 2 23 0 30 -3 6 -5 -1 -5 -18z"/>
<path d="M6163 6734 c-3 -8 -1 -20 4 -25 5 -5 9 1 9 16 0 29 -4 32 -13 9z"/>
<path d="M6230 6725 c0 -14 2 -25 4 -25 2 0 6 11 8 25 3 14 1 25 -3 25 -5 0
-9 -11 -9 -25z"/>
<path d="M6270 6725 c0 -14 2 -25 4 -25 2 0 6 11 8 25 3 14 1 25 -3 25 -5 0
-9 -11 -9 -25z"/>
<path d="M6312 6725 c0 -16 2 -22 5 -12 2 9 2 23 0 30 -3 6 -5 -1 -5 -18z"/>
<path d="M6342 6725 c0 -16 2 -22 5 -12 2 9 2 23 0 30 -3 6 -5 -1 -5 -18z"/>
<path d="M6382 6725 c0 -16 2 -22 5 -12 2 9 2 23 0 30 -3 6 -5 -1 -5 -18z"/>
<path d="M6418 6725 c2 -14 6 -25 8 -25 2 0 4 11 4 25 0 14 -4 25 -9 25 -4 0
-6 -11 -3 -25z"/>
<path d="M6485 6725 c0 -14 3 -25 8 -25 4 0 7 11 7 25 0 14 -3 25 -7 25 -5 0
-8 -11 -8 -25z"/>
<path d="M6521 6723 c1 -22 2 -23 6 -8 3 11 10 23 17 27 7 5 5 8 -6 8 -13 0
-18 -7 -17 -27z"/>
<path d="M5201 6725 c9 -9 23 -13 32 -9 28 10 19 24 -15 24 -29 0 -31 -2 -17
-15z"/>
<path d="M5290 6593 c-3 -78 -1 -139 3 -134 4 4 6 68 5 142 l-3 134 -5 -142z"/>
<path d="M5585 6719 c-4 -6 -5 -12 -2 -15 2 -3 7 2 10 11 7 17 1 20 -8 4z"/>
<path d="M6455 6719 c-4 -6 -5 -12 -2 -15 2 -3 7 2 10 11 7 17 1 20 -8 4z"/>
<path d="M6087 6709 c7 -7 15 -10 18 -7 3 3 -2 9 -12 12 -14 6 -15 5 -6 -5z"/>
<path d="M3810 6706 c0 -2 8 -10 18 -17 15 -13 16 -12 3 4 -13 16 -21 21 -21
13z"/>
<path d="M5995 6700 c3 -5 8 -10 11 -10 2 0 4 5 4 10 0 6 -5 10 -11 10 -5 0
-7 -4 -4 -10z"/>
<path d="M6698 6683 c-22 -5 -24 -43 -3 -43 8 0 15 9 15 19 0 11 6 22 13 24
15 7 -2 6 -25 0z"/>
<path d="M4987 6613 c-3 -18 0 -23 18 -23 18 0 21 5 18 23 -3 13 -11 24 -18
24 -7 0 -15 -11 -18 -24z"/>
<path d="M6232 6590 c0 -19 2 -27 5 -17 2 9 2 25 0 35 -3 9 -5 1 -5 -18z"/>
<path d="M6277 6613 c-2 -5 -1 -19 4 -33 7 -23 7 -23 8 8 1 31 -3 40 -12 25z"/>
<path d="M6360 6590 c0 -16 4 -30 8 -30 5 0 7 14 4 30 -2 17 -6 30 -8 30 -2 0
-4 -13 -4 -30z"/>
<path d="M5712 6575 c0 -16 2 -22 5 -12 2 9 2 23 0 30 -3 6 -5 -1 -5 -18z"/>
<path d="M5803 6583 c-3 -10 -8 -21 -9 -24 -2 -3 9 -4 24 -1 19 4 22 7 10 10
-10 2 -18 8 -18 13 0 6 5 7 12 3 7 -4 8 -3 4 4 -10 16 -16 15 -23 -5z"/>
<path d="M6330 6591 c13 -10 13 -12 0 -22 -13 -9 -13 -10 0 -6 8 2 15 10 15
17 0 7 -7 15 -15 17 -13 4 -13 3 0 -6z"/>
<path d="M5771 6564 c0 -11 3 -14 6 -6 3 7 2 16 -1 19 -3 4 -6 -2 -5 -13z"/>
<path d="M4589 6543 c-5 -25 -4 -61 0 -57 7 6 11 64 5 64 -2 0 -5 -3 -5 -7z"/>
<path d="M3600 6436 c0 -2 8 -10 18 -17 15 -13 16 -12 3 4 -13 16 -21 21 -21
13z"/>
<path d="M3574 6398 l-19 -23 23 19 c21 18 27 26 19 26 -2 0 -12 -10 -23 -22z"/>
<path d="M4583 6391 c0 -11 5 -18 9 -15 4 3 5 11 1 19 -7 21 -12 19 -10 -4z"/>
<path d="M3589 6373 c-13 -16 -12 -17 4 -4 16 13 21 21 13 21 -2 0 -10 -8 -17
-17z"/>
<path d="M6150 6365 c0 -12 -15 -15 -77 -15 -42 0 -74 -2 -71 -5 3 -3 109 -7
236 -8 127 -1 228 1 224 5 -4 4 -73 9 -152 10 -110 2 -144 6 -142 16 1 6 -2
12 -8 12 -5 0 -10 -7 -10 -15z"/>
<path d="M5322 6330 c0 -19 2 -27 5 -17 2 9 2 25 0 35 -3 9 -5 1 -5 -18z"/>
<path d="M3516 6342 c-3 -5 1 -9 9 -9 8 0 12 4 9 9 -3 4 -7 8 -9 8 -2 0 -6 -4
-9 -8z"/>
<path d="M5441 6334 c0 -11 3 -14 6 -6 3 7 2 16 -1 19 -3 4 -6 -2 -5 -13z"/>
<path d="M6525 6341 c-3 -5 -1 -12 5 -16 5 -3 10 1 10 9 0 18 -6 21 -15 7z"/>
<path d="M6660 6339 c0 -5 5 -7 12 -3 7 5 9 2 5 -8 -4 -12 -1 -14 14 -11 28 8
24 33 -6 33 -14 0 -25 -5 -25 -11z"/>
<path d="M5037 6302 c1 -20 -4 -50 -13 -66 -14 -29 -14 -30 2 -15 18 19 31
103 17 112 -5 3 -8 -10 -6 -31z"/>
<path d="M5203 6333 c9 -2 25 -2 35 0 9 3 1 5 -18 5 -19 0 -27 -2 -17 -5z"/>
<path d="M4583 6277 c5 -40 33 -81 53 -73 6 2 16 0 22 -6 6 -6 20 -7 33 -2 13
4 36 7 51 7 15 0 26 3 23 6 -5 8 -43 7 -74 -3 -13 -5 -27 -4 -33 2 -6 6 -16 8
-23 6 -17 -7 -37 21 -41 58 -2 17 -6 34 -9 37 -3 3 -4 -12 -2 -32z"/>
<path d="M3590 6235 l0 -55 43 1 c40 2 41 2 9 8 -18 3 -33 9 -32 14 0 4 0 11
0 16 0 5 12 12 28 14 l27 4 -27 2 c-21 1 -28 6 -28 20 0 15 8 21 33 24 28 3
26 4 -10 5 l-43 2 0 -55z"/>
<path d="M3953 6235 c0 -33 2 -45 4 -27 2 18 2 45 0 60 -2 15 -4 0 -4 -33z"/>
<path d="M3990 6235 c0 -30 5 -55 10 -55 6 0 10 25 10 55 0 30 -4 55 -10 55
-5 0 -10 -25 -10 -55z"/>
<path d="M4364 6270 c-13 -13 -5 -90 10 -90 7 0 10 17 9 46 -1 50 -5 58 -19
44z"/>
<path d="M3698 6230 c-3 -16 -1 -35 3 -41 3 -6 8 5 11 25 5 44 -8 59 -14 16z"/>
<path d="M3737 6249 c6 -8 13 -27 16 -44 4 -23 4 -20 3 9 -1 25 -6 41 -16 44
-12 4 -13 2 -3 -9z"/>
<path d="M3790 6218 c0 -21 5 -38 10 -38 6 0 10 14 10 30 0 17 5 30 10 30 6 0
10 4 10 8 0 4 -9 8 -20 8 -16 0 -20 -7 -20 -38z"/>
<path d="M3860 6246 c-6 -8 -10 -25 -8 -38 4 -30 46 -38 65 -12 17 23 16 29
-3 48 -19 20 -38 20 -54 2z m45 -27 c0 -15 -7 -25 -18 -27 -22 -4 -33 24 -17
43 18 21 35 13 35 -16z"/>
<path d="M4079 6243 c9 -19 10 -22 12 -50 1 -10 5 -2 8 17 4 20 2 38 -4 42
-18 13 -26 9 -16 -9z"/>
<path d="M4129 6233 c4 -15 6 -34 4 -40 -3 -7 0 -13 7 -13 15 0 9 72 -7 77 -9
3 -10 -4 -4 -24z"/>
<path d="M4180 6245 c-20 -24 -4 -65 25 -65 13 0 27 5 30 10 4 7 -2 9 -19 4
-16 -4 -26 -2 -26 5 0 6 11 11 25 11 27 0 33 18 13 38 -16 16 -33 15 -48 -3z
m45 -5 c3 -6 -1 -13 -10 -16 -19 -8 -30 0 -20 15 8 14 22 14 30 1z"/>
<path d="M4270 6221 c0 -23 2 -41 4 -41 8 0 12 71 4 76 -4 3 -8 -13 -8 -35z"/>
<path d="M4307 6249 c6 -8 13 -27 16 -44 4 -23 4 -20 3 9 -1 25 -6 41 -16 44
-12 4 -13 2 -3 -9z"/>
<path d="M6688 6253 c6 -2 18 -2 25 0 6 3 1 5 -13 5 -14 0 -19 -2 -12 -5z"/>
<path d="M4036 6241 c-8 -12 -3 -61 5 -61 4 0 9 16 11 35 4 33 -4 46 -16 26z"/>
<path d="M5260 6230 c-9 -6 -10 -10 -3 -10 6 0 15 5 18 10 8 12 4 12 -15 0z"/>
<path d="M4860 6216 c0 -2 8 -10 18 -17 15 -13 16 -12 3 4 -13 16 -21 21 -21
13z"/>
<path d="M4932 6209 c-32 -12 -27 -15 18 -11 22 2 40 5 40 7 0 8 -39 11 -58 4z"/>
<path d="M4785 6200 c-3 -6 1 -7 9 -4 18 7 21 14 7 14 -6 0 -13 -4 -16 -10z"/>
<path d="M4828 6203 c7 -3 16 -2 19 1 4 3 -2 6 -13 5 -11 0 -14 -3 -6 -6z"/>
<path d="M3642 6088 c-16 -16 2 -44 33 -52 14 -4 25 -10 25 -15 0 -14 -32 -23
-44 -11 -16 16 -30 12 -16 -6 20 -23 64 -14 68 14 3 18 -3 26 -27 35 -17 6
-31 15 -31 19 0 14 22 20 33 9 17 -17 31 -13 17 4 -15 18 -42 19 -58 3z"/>
<path d="M3329 6063 c-13 -16 -12 -17 4 -4 9 7 17 15 17 17 0 8 -8 3 -21 -13z"/>
<path d="M3738 6045 c-8 -19 -8 -28 2 -40 14 -17 46 -20 55 -5 4 6 -4 9 -17 7
-19 -2 -23 3 -23 23 0 16 6 25 15 25 8 0 14 -6 13 -12 -2 -7 2 -13 7 -13 14 0
13 13 -2 28 -19 19 -37 14 -50 -13z"/>
<path d="M3831 6025 c2 -30 3 -33 6 -12 2 15 13 32 24 38 17 9 22 5 34 -25 19
-45 28 -45 43 -3 17 46 14 58 -5 23 l-16 -30 -14 27 c-11 21 -20 27 -43 25
-28 -2 -30 -5 -29 -43z"/>
<path d="M3979 6068 c-7 -27 -6 -68 1 -73 6 -4 10 10 10 34 0 23 -2 41 -5 41
-3 0 -5 -1 -6 -2z"/>
<path d="M4024 6056 c-16 -43 21 -85 49 -57 9 9 5 11 -13 9 -21 -3 -25 1 -25
22 0 21 4 25 25 22 19 -2 22 0 10 8 -21 14 -40 12 -46 -4z"/>
<path d="M4112 6058 c-25 -25 -6 -68 30 -68 10 0 18 4 18 9 0 5 -9 7 -20 4
-16 -4 -20 0 -20 20 0 32 16 43 29 20 5 -10 13 -15 17 -11 9 9 -14 38 -30 38
-7 0 -17 -5 -24 -12z"/>
<path d="M4197 6063 c-14 -14 -6 -31 18 -37 14 -4 25 -11 25 -17 0 -7 -10 -9
-26 -5 -17 5 -23 3 -19 -4 8 -14 38 -13 53 2 14 14 -2 38 -24 38 -8 0 -14 5
-14 11 0 6 9 8 21 4 15 -5 19 -4 15 4 -8 12 -39 15 -49 4z"/>
<path d="M5268 6023 c7 -3 16 -2 19 1 4 3 -2 6 -13 5 -11 0 -14 -3 -6 -6z"/>
<path d="M5321 6014 c0 -11 3 -14 6 -6 3 7 2 16 -1 19 -3 4 -6 -2 -5 -13z"/>
<path d="M3200 6016 c0 -2 8 -10 18 -17 15 -13 16 -12 3 4 -13 16 -21 21 -21
13z"/>
<path d="M5265 6000 c3 -5 13 -10 21 -10 8 0 12 5 9 10 -3 6 -13 10 -21 10 -8
0 -12 -4 -9 -10z"/>
<path d="M3638 5855 l4 -55 36 1 c36 1 36 1 7 8 -28 6 -30 10 -33 54 -2 26 -6
47 -10 47 -4 0 -5 -25 -4 -55z"/>
<path d="M3831 5856 c-1 -33 2 -56 6 -52 4 4 7 19 8 34 0 17 5 27 15 27 19 0
26 -45 8 -57 -10 -8 -10 -9 1 -6 8 2 19 12 25 21 14 22 -4 52 -30 52 -10 0
-22 9 -26 20 -3 11 -6 -6 -7 -39z"/>
<path d="M3920 5857 l0 -53 33 1 c28 0 32 4 35 29 4 30 -13 49 -35 41 -8 -2
-13 4 -13 15 0 11 -4 20 -10 20 -5 0 -10 -24 -10 -53z m55 -17 c0 -27 -22 -39
-31 -16 -8 22 3 49 19 43 6 -2 12 -14 12 -27z"/>
<path d="M5398 5899 c-21 -12 -24 -69 -6 -87 15 -15 64 -16 73 -1 11 17 -3 23
-20 9 -22 -18 -45 -5 -45 28 0 38 17 54 42 41 23 -13 39 -2 18 11 -19 12 -41
12 -62 -1z"/>
<path d="M6157 5903 c-4 -3 -7 -16 -7 -28 0 -17 8 -24 31 -29 18 -3 29 -11 27
-18 -6 -18 -39 -23 -49 -7 -4 7 -11 10 -14 7 -14 -14 7 -28 41 -28 31 0 34 2
34 30 0 23 -5 30 -19 30 -20 0 -45 23 -35 33 4 3 15 2 26 -4 23 -13 39 -2 18
11 -18 11 -44 13 -53 3z"/>
<path d="M6450 5885 c0 -9 -9 -15 -25 -15 -17 0 -25 -5 -24 -17 0 -11 3 -13 6
-5 9 24 41 13 46 -15 2 -17 5 -10 6 20 0 26 -1 47 -4 47 -3 0 -5 -7 -5 -15z"/>
<path d="M5768 5879 c-8 -24 5 -79 18 -79 11 0 12 4 2 19 -9 15 -9 23 1 35 13
15 8 36 -9 36 -4 0 -10 -5 -12 -11z"/>
<path d="M6248 5879 c-2 -6 -2 -26 0 -45 3 -24 9 -34 21 -33 10 0 11 2 4 6
-16 6 -17 50 -1 55 6 2 8 10 4 16 -9 15 -23 15 -28 1z"/>
<path d="M3736 5864 c-9 -8 -16 -19 -16 -24 0 -11 29 -40 40 -40 37 0 54 42
28 68 -16 16 -33 15 -52 -4z m49 -14 c8 -24 -1 -40 -21 -40 -17 0 -28 24 -20
45 8 22 34 18 41 -5z"/>
<path d="M4010 5876 c0 -2 7 -21 16 -42 15 -35 15 -39 -2 -51 -17 -12 -17 -13
0 -13 10 0 24 16 36 43 24 51 26 84 3 42 l-17 -30 -10 28 c-5 15 -13 27 -18
27 -4 0 -8 -2 -8 -4z"/>
<path d="M6027 5874 c-4 -4 -7 -22 -7 -41 0 -28 3 -33 24 -33 14 0 28 5 32 12
5 8 2 9 -10 5 -10 -4 -23 -4 -29 0 -7 4 -2 9 13 13 31 7 35 44 5 48 -12 2 -24
0 -28 -4z m38 -14 c3 -6 -1 -13 -10 -16 -19 -8 -30 0 -20 15 8 14 22 14 30 1z"/>
<path d="M5500 5861 c0 -4 11 -6 23 -4 20 4 23 1 22 -19 -1 -13 -9 -24 -20
-27 -13 -2 -16 1 -12 13 4 9 2 16 -3 16 -6 0 -10 -9 -10 -20 0 -16 7 -20 30
-20 28 0 30 3 30 35 0 32 -2 35 -30 35 -16 0 -30 -4 -30 -9z"/>
<path d="M5591 5818 c1 -29 3 -45 6 -36 2 9 16 18 31 20 23 2 27 8 27 33 0 27
-4 30 -32 33 l-33 3 1 -53z m49 17 c0 -25 -23 -35 -35 -15 -10 16 2 40 20 40
9 0 15 -9 15 -25z"/>
<path d="M5682 5853 c2 -10 13 -19 26 -21 12 -2 22 -8 22 -14 0 -6 -10 -8 -25
-4 -14 4 -25 2 -25 -4 0 -5 14 -10 31 -10 26 0 30 3 27 23 -2 14 -11 23 -26
25 -12 2 -20 8 -17 13 4 5 1 9 -5 9 -6 0 -10 -8 -8 -17z"/>
<path d="M5710 5866 c0 -2 7 -6 15 -10 8 -3 15 -1 15 4 0 6 -7 10 -15 10 -8 0
-15 -2 -15 -4z"/>
<path d="M5830 5834 c0 -34 1 -35 33 -32 28 3 32 7 35 36 3 31 2 32 -32 32
-35 0 -36 -1 -36 -36z m55 1 c0 -13 -8 -21 -22 -23 -19 -3 -23 1 -23 23 0 22
4 26 23 23 14 -2 22 -10 22 -23z"/>
<path d="M5921 5833 c1 -37 2 -37 8 -8 9 43 39 45 44 3 l4 -33 1 38 c2 35 0
37 -28 37 -28 0 -30 -2 -29 -37z"/>
<path d="M6301 5838 c-1 -33 2 -38 21 -38 19 0 20 1 6 13 -9 6 -19 23 -21 37
-3 18 -5 14 -6 -12z"/>
<path d="M6357 5841 c-4 -19 -5 -36 -2 -39 10 -11 16 7 13 40 l-3 33 -8 -34z"/>
<path d="M6503 5835 c0 -22 2 -30 4 -17 2 12 2 30 0 40 -3 9 -5 -1 -4 -23z"/>
<path d="M6540 5835 c0 -35 1 -36 33 -33 28 3 32 6 32 33 0 27 -4 30 -32 33
-32 3 -33 2 -33 -33z m55 0 c0 -30 -39 -27 -43 3 -3 20 0 23 20 20 15 -2 23
-10 23 -23z"/>
<path d="M6400 5818 c0 -12 7 -18 23 -17 15 0 17 2 7 6 -8 3 -18 11 -22 17 -5
7 -8 4 -8 -6z"/>
<path d="M2989 5703 l-24 -28 28 24 c25 23 32 31 24 31 -2 0 -14 -12 -28 -27z"/>
<path d="M3019 5693 c-13 -16 -12 -17 4 -4 9 7 17 15 17 17 0 8 -8 3 -21 -13z"/>
<path d="M2977 5642 c-10 -10 -17 -22 -17 -27 0 -4 9 2 20 15 11 13 20 25 20
27 0 7 -8 2 -23 -15z"/>
<path d="M2997 5613 c-4 -24 -3 -25 7 -11 10 14 15 15 26 5 9 -9 9 -6 -1 11
-18 29 -26 28 -32 -5z"/>
<path d="M6012 5615 c0 -16 2 -22 5 -12 2 9 2 23 0 30 -3 6 -5 -1 -5 -18z"/>
<path d="M6090 5623 c0 -10 4 -14 8 -8 4 6 11 13 16 18 5 4 2 7 -7 7 -10 0
-17 -8 -17 -17z"/>
<path d="M6113 5605 c0 -8 4 -12 9 -9 5 3 6 10 3 15 -9 13 -12 11 -12 -6z"/>
<path d="M3067 5553 c-4 -3 -7 -11 -7 -17 0 -6 5 -5 12 2 6 6 9 14 7 17 -3 3
-9 2 -12 -2z"/>
<path d="M3481 5478 c0 -10 -8 -18 -18 -18 -9 0 -14 -2 -11 -5 3 -3 76 -6 162
-6 86 -1 156 -5 156 -9 0 -5 -17 -11 -37 -13 l-38 -4 43 -1 c34 -2 42 1 42 16
0 9 -11 22 -25 29 -14 6 -25 7 -25 2 0 -5 -54 -9 -119 -9 -105 0 -120 2 -124
18 -4 16 -5 16 -6 0z"/>
<path d="M3163 5458 c-6 -7 -13 -19 -17 -25 -12 -21 18 -5 32 17 13 22 1 28
-15 8z"/>
<path d="M5267 5464 c-8 -8 1 -24 13 -24 4 0 10 7 14 15 5 15 -14 21 -27 9z"/>
<path d="M3336 5445 c-3 -8 -1 -15 4 -15 6 0 10 7 10 15 0 8 -2 15 -4 15 -2 0
-6 -7 -10 -15z"/>
<path d="M3862 5440 c0 -14 2 -19 5 -12 2 6 2 18 0 25 -3 6 -5 1 -5 -13z"/>
<path d="M4192 5440 c0 -14 2 -19 5 -12 2 6 2 18 0 25 -3 6 -5 1 -5 -13z"/>
<path d="M4333 5453 l67 -4 0 -44 c0 -33 -4 -45 -17 -48 -17 -4 -17 -5 0 -6
15 -1 17 -15 18 -138 2 -211 0 -236 -13 -245 -10 -6 -10 -8 0 -8 8 0 12 -18
12 -54 0 -52 -1 -55 -27 -59 l-28 -4 28 -2 c30 -1 29 1 27 -93 -1 -42 3 -68 9
-68 8 0 11 121 11 390 l0 390 -78 -2 -77 -2 68 -3z"/>
<path d="M4431 5434 c0 -11 3 -14 6 -6 3 7 2 16 -1 19 -3 4 -6 -2 -5 -13z"/>
<path d="M2799 5423 c-13 -16 -12 -17 4 -4 9 7 17 15 17 17 0 8 -8 3 -21 -13z"/>
<path d="M3195 5430 c-3 -5 -1 -10 4 -10 6 0 11 5 11 10 0 6 -2 10 -4 10 -3 0
-8 -4 -11 -10z"/>
<path d="M4008 5368 c5 -113 9 -125 10 -30 1 50 -1 92 -5 92 -5 0 -7 -28 -5
-62z"/>
<path d="M4038 5253 c-2 -98 -2 -208 0 -245 l3 -68 172 2 172 2 -167 3 -168 3
0 60 c0 47 3 59 18 63 16 4 16 5 0 6 -17 1 -18 16 -15 176 1 96 -1 175 -5 175
-4 0 -8 -80 -10 -177z"/>
<path d="M4288 5423 c7 -3 16 -2 19 1 4 3 -2 6 -13 5 -11 0 -14 -3 -6 -6z"/>
<path d="M4372 5405 c0 -16 2 -22 5 -12 2 9 2 23 0 30 -3 6 -5 -1 -5 -18z"/>
<path d="M2763 5403 c4 -6 -10 -30 -30 -54 -21 -24 -27 -35 -14 -24 39 34 63
73 50 81 -7 4 -9 3 -6 -3z"/>
<path d="M5270 5365 c0 -8 7 -15 15 -15 9 0 12 6 9 15 -4 8 -10 15 -15 15 -5
0 -9 -7 -9 -15z"/>
<path d="M4308 5353 c6 -2 18 -2 25 0 6 3 1 5 -13 5 -14 0 -19 -2 -12 -5z"/>
<path d="M3152 5325 c-11 -13 -10 -15 7 -15 14 0 19 5 15 15 -7 18 -6 18 -22
0z"/>
<path d="M2871 5314 c0 -11 3 -14 6 -6 3 7 2 16 -1 19 -3 4 -6 -2 -5 -13z"/>
<path d="M2932 5305 c0 -16 2 -22 5 -12 2 9 2 23 0 30 -3 6 -5 -1 -5 -18z"/>
<path d="M5102 5310 c0 -14 2 -19 5 -12 2 6 2 18 0 25 -3 6 -5 1 -5 -13z"/>
<path d="M3516 5298 c3 -5 10 -6 15 -3 13 9 11 12 -6 12 -8 0 -12 -4 -9 -9z"/>
<path d="M2674 5278 l-19 -23 23 19 c21 18 27 26 19 26 -2 0 -12 -10 -23 -22z"/>
<path d="M5102 5245 c0 -16 2 -22 5 -12 2 9 2 23 0 30 -3 6 -5 -1 -5 -18z"/>
<path d="M3190 5210 c0 -5 5 -10 11 -10 5 0 7 5 4 10 -3 6 -8 10 -11 10 -2 0
-4 -4 -4 -10z"/>
<path d="M3994 5208 c-4 -6 -3 -8 4 -4 6 3 13 -2 15 -11 4 -14 5 -13 6 5 1 23
-13 30 -25 10z"/>
<path d="M5102 5180 c0 -14 2 -19 5 -12 2 6 2 18 0 25 -3 6 -5 1 -5 -13z"/>
<path d="M3262 5165 c0 -16 2 -22 5 -12 2 9 2 23 0 30 -3 6 -5 -1 -5 -18z"/>
<path d="M3492 5165 c0 -16 2 -22 5 -12 2 9 2 23 0 30 -3 6 -5 -1 -5 -18z"/>
<path d="M2811 5160 c0 -8 4 -22 9 -30 12 -18 12 -2 0 25 -6 13 -9 15 -9 5z"/>
<path d="M2952 5150 c0 -14 2 -19 5 -12 2 6 2 18 0 25 -3 6 -5 1 -5 -13z"/>
<path d="M3022 5145 c0 -16 2 -22 5 -12 2 9 2 23 0 30 -3 6 -5 -1 -5 -18z"/>
<path d="M3296 5157 c3 -10 9 -15 12 -12 3 3 0 11 -7 18 -10 9 -11 8 -5 -6z"/>
<path d="M3375 5161 c-3 -5 -1 -12 5 -16 5 -3 10 1 10 9 0 18 -6 21 -15 7z"/>
<path d="M3411 5154 c0 -11 3 -14 6 -6 3 7 2 16 -1 19 -3 4 -6 -2 -5 -13z"/>
<path d="M3461 5154 c0 -11 3 -14 6 -6 3 7 2 16 -1 19 -3 4 -6 -2 -5 -13z"/>
<path d="M3571 5154 c0 -11 3 -14 6 -6 3 7 2 16 -1 19 -3 4 -6 -2 -5 -13z"/>
<path d="M4014 5085 c0 -49 1 -71 3 -48 2 23 2 64 0 90 -2 26 -3 8 -3 -42z"/>
<path d="M2847 5139 c4 -13 8 -18 11 -10 2 7 -1 18 -6 23 -8 8 -9 4 -5 -13z"/>
<path d="M2900 5156 c0 -2 8 -10 18 -17 15 -13 16 -12 3 4 -13 16 -21 21 -21
13z"/>
<path d="M2776 5137 c3 -10 9 -15 12 -12 3 3 0 11 -7 18 -10 9 -11 8 -5 -6z"/>
<path d="M5102 5120 c0 -14 2 -19 5 -12 2 6 2 18 0 25 -3 6 -5 1 -5 -13z"/>
<path d="M3693 5073 c9 -2 23 -2 30 0 6 3 -1 5 -18 5 -16 0 -22 -2 -12 -5z"/>
<path d="M4363 5073 c9 -2 23 -2 30 0 6 3 -1 5 -18 5 -16 0 -22 -2 -12 -5z"/>
<path d="M5102 5055 c0 -16 2 -22 5 -12 2 9 2 23 0 30 -3 6 -5 -1 -5 -18z"/>
<path d="M2762 5025 c0 -16 2 -22 5 -12 2 9 2 23 0 30 -3 6 -5 -1 -5 -18z"/>
<path d="M2851 5014 c0 -11 3 -14 6 -6 3 7 2 16 -1 19 -3 4 -6 -2 -5 -13z"/>
<path d="M2891 5014 c0 -11 3 -14 6 -6 3 7 2 16 -1 19 -3 4 -6 -2 -5 -13z"/>
<path d="M2399 5003 c-13 -16 -12 -17 4 -4 16 13 21 21 13 21 -2 0 -10 -8 -17
-17z"/>
<path d="M2490 5010 c-9 -6 -10 -10 -3 -10 6 0 15 5 18 10 8 12 4 12 -15 0z"/>
<path d="M5102 4985 c0 -16 2 -22 5 -12 2 9 2 23 0 30 -3 6 -5 -1 -5 -18z"/>
<path d="M3070 4990 c0 -5 5 -10 11 -10 5 0 7 5 4 10 -3 6 -8 10 -11 10 -2 0
-4 -4 -4 -10z"/>
<path d="M2407 4964 c-10 -13 -14 -24 -10 -24 9 0 36 40 31 45 -2 2 -11 -8
-21 -21z"/>
<path d="M4002 4975 c-11 -13 -10 -15 7 -15 14 0 19 5 15 15 -7 18 -6 18 -22
0z"/>
<path d="M3850 4964 c0 -9 -22 -14 -77 -16 l-78 -3 80 -5 c44 -3 118 -2 165 1
l85 5 -85 3 c-55 2 -76 6 -60 10 l25 7 -27 6 c-19 4 -28 1 -28 -8z"/>
<path d="M3673 4963 c9 -2 23 -2 30 0 6 3 -1 5 -18 5 -16 0 -22 -2 -12 -5z"/>
<path d="M3738 4963 c6 -2 18 -2 25 0 6 3 1 5 -13 5 -14 0 -19 -2 -12 -5z"/>
<path d="M3938 4963 c7 -3 16 -2 19 1 4 3 -2 6 -13 5 -11 0 -14 -3 -6 -6z"/>
<path d="M4068 4963 c7 -3 16 -2 19 1 4 3 -2 6 -13 5 -11 0 -14 -3 -6 -6z"/>
<path d="M4198 4963 c7 -3 16 -2 19 1 4 3 -2 6 -13 5 -11 0 -14 -3 -6 -6z"/>
<path d="M4268 4963 c7 -3 16 -2 19 1 4 3 -2 6 -13 5 -11 0 -14 -3 -6 -6z"/>
<path d="M4328 4963 c7 -3 16 -2 19 1 4 3 -2 6 -13 5 -11 0 -14 -3 -6 -6z"/>
<path d="M2595 4929 c-4 -6 -5 -12 -2 -15 2 -3 7 2 10 11 7 17 1 20 -8 4z"/>
<path d="M2353 4908 c1 -7 -3 -12 -9 -11 -6 1 -11 -5 -11 -13 0 -10 7 -9 24 8
27 25 28 28 8 28 -8 0 -14 -6 -12 -12z"/>
<path d="M3918 4913 c7 -3 16 -2 19 1 4 3 -2 6 -13 5 -11 0 -14 -3 -6 -6z"/>
<path d="M3958 4913 c6 -2 18 -2 25 0 6 3 1 5 -13 5 -14 0 -19 -2 -12 -5z"/>
<path d="M4328 4913 c12 -2 30 -2 40 0 9 3 -1 5 -23 4 -22 0 -30 -2 -17 -4z"/>
<path d="M2676 4884 c-5 -14 -4 -15 9 -4 17 14 19 20 6 20 -5 0 -12 -7 -15
-16z"/>
<path d="M2253 4853 c9 -2 23 -2 30 0 6 3 -1 5 -18 5 -16 0 -22 -2 -12 -5z"/>
<path d="M2308 4853 c7 -3 16 -2 19 1 4 3 -2 6 -13 5 -11 0 -14 -3 -6 -6z"/>
<path d="M2378 4853 c6 -2 18 -2 25 0 6 3 1 5 -13 5 -14 0 -19 -2 -12 -5z"/>
<path d="M2700 4856 c0 -2 8 -10 18 -17 15 -13 16 -12 3 4 -13 16 -21 21 -21
13z"/>
<path d="M2289 4823 c-13 -16 -12 -17 4 -4 9 7 17 15 17 17 0 8 -8 3 -21 -13z"/>
<path d="M6690 4809 c0 -31 0 -32 20 -14 11 10 20 19 20 21 0 2 -9 8 -20 14
-18 10 -20 8 -20 -21z"/>
<path d="M2251 4796 c-10 -12 14 -14 171 -13 l183 1 -173 3 c-109 2 -171 7
-167 13 9 15 -1 12 -14 -4z"/>
<path d="M2658 4783 c17 -2 47 -2 65 0 17 2 3 4 -33 4 -36 0 -50 -2 -32 -4z"/>
<path d="M2883 4783 c53 -2 141 -2 195 0 53 1 9 3 -98 3 -107 0 -151 -2 -97
-3z"/>
<path d="M3293 4783 c59 -2 155 -2 215 0 59 1 10 3 -108 3 -118 0 -167 -2
-107 -3z"/>
<path d="M3633 4783 c9 -2 23 -2 30 0 6 3 -1 5 -18 5 -16 0 -22 -2 -12 -5z"/>
<path d="M3203 4753 c4 -3 2 -12 -4 -19 -15 -18 -3 -20 96 -14 50 3 152 4 227
2 l137 -3 4 -27 c4 -24 4 -24 6 6 l1 32 -79 0 c-61 0 -80 3 -85 15 -6 17 -26
20 -26 4 0 -5 5 -7 10 -4 6 3 10 3 10 -2 0 -4 -63 -9 -140 -11 -121 -2 -140
-1 -140 13 0 8 -5 15 -12 15 -6 0 -8 -3 -5 -7z"/>
<path d="M2195 4730 c-10 -12 -19 -30 -20 -42 -2 -19 0 -19 17 6 18 23 26 26
84 26 55 0 63 2 52 14 -7 8 -14 10 -16 5 -5 -12 -82 -11 -82 1 0 16 -15 12
-35 -10z m25 7 c0 -2 -10 -12 -22 -23 l-23 -19 19 23 c18 21 26 27 26 19z"/>
<path d="M4312 4720 c0 -19 2 -27 5 -17 2 9 2 25 0 35 -3 9 -5 1 -5 -18z"/>
<path d="M2408 4723 c29 -2 74 -2 100 0 26 2 2 3 -53 3 -55 0 -76 -1 -47 -3z"/>
<path d="M2628 4723 c29 -2 74 -2 100 0 26 2 2 3 -53 3 -55 0 -76 -1 -47 -3z"/>
<path d="M2828 4723 c29 -2 74 -2 100 0 26 2 2 3 -53 3 -55 0 -76 -1 -47 -3z"/>
<path d="M3038 4723 c29 -2 74 -2 100 0 26 2 2 3 -53 3 -55 0 -76 -1 -47 -3z"/>
<path d="M3661 4618 c0 -20 -7 -39 -13 -41 -10 -4 -10 -6 0 -6 8 -1 12 -22 12
-70 0 -65 1 -69 21 -64 18 5 19 7 5 15 -18 10 -23 102 -6 113 7 4 8 11 1 18
-5 7 -11 26 -14 42 -4 28 -4 27 -6 -7z"/>
<path d="M4212 4615 c0 -16 2 -22 5 -12 2 9 2 23 0 30 -3 6 -5 -1 -5 -18z"/>
<path d="M4400 4544 c0 -65 3 -93 11 -89 6 4 8 13 5 20 -3 8 2 19 10 26 11 9
12 14 3 20 -8 4 -11 28 -10 63 1 33 -3 56 -9 56 -6 0 -10 -37 -10 -96z"/>
<path d="M5102 4600 c0 -14 2 -19 5 -12 2 6 2 18 0 25 -3 6 -5 1 -5 -13z"/>
<path d="M2084 4578 c-15 -18 -30 -33 -35 -33 -9 0 -24 -14 -25 -23 -2 -19
-17 -41 -24 -37 -4 2 -15 -4 -25 -15 -10 -11 -15 -20 -10 -20 4 0 -4 -9 -19
-21 -14 -11 -24 -24 -21 -29 2 -4 -14 -29 -37 -56 -64 -75 -74 -88 -61 -81 9
6 211 243 276 324 28 35 12 27 -19 -9z m-84 -102 c0 -2 -8 -10 -17 -17 -16
-13 -17 -12 -4 4 13 16 21 21 21 13z m-40 -50 c0 -2 -8 -10 -17 -17 -16 -13
-17 -12 -4 4 13 16 21 21 21 13z"/>
<path d="M3892 4555 c0 -16 2 -22 5 -12 2 9 2 23 0 30 -3 6 -5 -1 -5 -18z"/>
<path d="M3892 4500 c0 -14 2 -19 5 -12 2 6 2 18 0 25 -3 6 -5 1 -5 -13z"/>
<path d="M4321 4504 c0 -11 3 -14 6 -6 3 7 2 16 -1 19 -3 4 -6 -2 -5 -13z"/>
<path d="M6620 4505 c-11 -13 -10 -14 4 -9 9 3 16 10 16 15 0 13 -6 11 -20 -6z"/>
<path d="M5277 4502 c6 -4 13 -30 16 -57 l3 -50 2 58 c2 48 -1 57 -15 57 -12
0 -14 -3 -6 -8z"/>
<path d="M6745 4263 l0 -248 195 0 195 -1 -192 3 -193 3 -3 245 -3 245 1 -247z"/>
<path d="M3853 4463 c9 -2 25 -2 35 0 9 3 1 5 -18 5 -19 0 -27 -2 -17 -5z"/>
<path d="M4321 4444 c0 -11 3 -14 6 -6 3 7 2 16 -1 19 -3 4 -6 -2 -5 -13z"/>
<path d="M4425 4449 c-4 -6 -5 -12 -2 -15 2 -3 7 2 10 11 7 17 1 20 -8 4z"/>
<path d="M6692 4425 c0 -16 2 -22 5 -12 2 9 2 23 0 30 -3 6 -5 -1 -5 -18z"/>
<path d="M4431 4404 c0 -11 3 -14 6 -6 3 7 2 16 -1 19 -3 4 -6 -2 -5 -13z"/>
<path d="M3131 4283 c1 -37 3 -49 7 -35 4 13 10 23 15 23 4 -1 11 -1 15 -1 5
0 15 -11 22 -25 7 -13 17 -22 22 -19 5 3 2 14 -7 24 -13 15 -14 22 -4 38 19
31 5 52 -36 52 l-35 0 1 -57z m58 34 c6 -8 8 -17 4 -20 -12 -12 -53 -7 -53 6
0 28 30 37 49 14z"/>
<path d="M2003 4323 c13 -3 17 -15 17 -54 0 -27 5 -49 10 -49 6 0 10 22 10 49
0 39 4 51 18 54 9 3 -3 5 -28 5 -25 0 -37 -2 -27 -5z"/>
<path d="M2430 4315 c0 -9 -9 -15 -25 -15 -18 0 -26 -7 -31 -25 -8 -32 11 -55
42 -53 22 2 24 7 24 55 0 29 -2 53 -5 53 -3 0 -5 -7 -5 -15z m-2 -49 c2 -10
-1 -23 -7 -29 -16 -16 -44 14 -35 37 8 22 38 17 42 -8z"/>
<path d="M2523 4283 c0 -35 5 -53 13 -53 7 0 19 -3 28 -6 9 -3 16 -1 16 5 0 6
-6 11 -14 11 -19 0 -28 15 -37 60 -6 31 -7 29 -6 -17z"/>
<path d="M2788 4318 c-3 -7 -3 -30 0 -50 3 -27 9 -38 21 -37 10 0 11 2 4 6
-15 5 -18 50 -4 55 5 2 4 11 -4 21 -9 13 -14 14 -17 5z"/>
<path d="M5291 4275 c-1 -33 -2 -113 -1 -177 l1 -118 -55 0 -56 0 0 -110 0
-110 48 2 47 1 -42 4 -43 4 0 45 c0 24 5 44 10 44 6 0 10 -16 10 -37 0 -20 2
-34 5 -31 3 3 6 31 6 62 1 58 4 61 47 50 26 -7 29 -31 5 -37 -16 -4 -16 -5 0
-6 16 -1 18 -8 15 -56 -1 -30 0 -55 5 -55 4 0 7 36 7 80 0 64 3 80 15 80 8 0
15 -6 15 -12 0 -10 2 -10 8 0 7 9 58 12 223 10 l214 -3 5 -315 c5 -266 6 -287
9 -135 1 99 2 199 1 223 -1 24 4 50 12 59 9 12 10 15 1 9 -10 -5 -13 12 -13
73 0 80 0 81 25 81 l25 0 0 -160 c0 -148 -1 -159 -17 -153 -17 7 -17 6 0 -11
20 -21 24 -125 5 -144 -9 -9 -9 -12 0 -12 7 0 12 -26 15 -72 1 -40 4 72 5 250
l2 322 65 0 c55 0 65 -3 65 -17 1 -17 1 -17 11 0 8 14 24 17 86 17 42 0 74 2
71 5 -3 3 -71 6 -152 6 -151 0 -203 15 -73 22 l72 3 -73 2 c-46 1 -71 6 -67
12 4 7 -83 10 -254 10 l-260 0 -4 23 -4 22 -2 -22 c0 -13 -7 -23 -14 -23 -11
0 -14 27 -16 114 -2 102 0 115 16 119 16 4 16 5 1 6 -13 1 -18 13 -21 59 l-3
57 -3 -60z m-81 -355 c0 -27 -4 -50 -10 -50 -5 0 -10 23 -10 50 0 28 5 50 10
50 6 0 10 -22 10 -50z m416 35 c-4 -11 1 -15 22 -14 17 1 20 3 10 6 -40 10
-14 23 47 23 63 0 65 -1 65 -25 l0 -25 -215 0 c-198 0 -215 1 -216 18 -1 16
-2 16 -6 0 -3 -14 -15 -18 -47 -18 -49 0 -56 4 -49 29 4 17 21 18 200 20 170
1 194 -1 189 -14z m212 -10 c0 -20 -6 -25 -24 -25 -19 0 -24 5 -24 25 0 20 5
25 24 25 18 0 24 -5 24 -25z"/>
<path d="M5710 3950 l-25 -8 28 -1 c15 -1 27 4 27 9 0 6 -1 10 -2 9 -2 -1 -14
-5 -28 -9z"/>
<path d="M5260 3940 c0 -5 7 -7 15 -4 8 4 15 8 15 10 0 2 -7 4 -15 4 -8 0 -15
-4 -15 -10z"/>
<path d="M5368 3943 c12 -2 32 -2 45 0 12 2 2 4 -23 4 -25 0 -35 -2 -22 -4z"/>
<path d="M5488 3943 c6 -2 18 -2 25 0 6 3 1 5 -13 5 -14 0 -19 -2 -12 -5z"/>
<path d="M5588 3943 c7 -3 16 -2 19 1 4 3 -2 6 -13 5 -11 0 -14 -3 -6 -6z"/>
<path d="M2098 4270 c-3 -16 -1 -35 4 -42 4 -8 8 4 8 30 0 49 -6 55 -12 12z"/>
<path d="M2142 4288 c-15 -15 -15 -41 0 -56 15 -15 45 -16 53 -2 4 6 -3 9 -16
7 -12 -1 -24 4 -26 11 -3 7 5 12 22 12 20 0 26 4 23 18 -4 21 -39 27 -56 10z
m43 -8 c3 -5 -3 -10 -15 -10 -12 0 -18 5 -15 10 3 6 10 10 15 10 5 0 12 -4 15
-10z"/>
<path d="M2231 4255 c2 -31 3 -34 6 -12 3 16 11 31 19 34 21 8 17 22 -6 20
-17 -1 -20 -8 -19 -42z"/>
<path d="M2287 4294 c-11 -11 -8 -49 5 -62 15 -15 45 -16 53 -2 4 6 -3 9 -16
7 -12 -1 -24 4 -26 11 -3 7 5 12 22 12 20 0 26 4 23 18 -3 17 -48 29 -61 16z
m43 -14 c0 -5 -7 -10 -15 -10 -8 0 -15 5 -15 10 0 6 7 10 15 10 8 0 15 -4 15
-10z"/>
<path d="M2617 4294 c-11 -12 -8 -52 5 -60 8 -5 9 -2 5 9 -5 13 -1 17 19 17
19 0 25 5 22 18 -3 17 -38 29 -51 16z m43 -14 c0 -5 -9 -10 -20 -10 -11 0 -20
5 -20 10 0 6 9 10 20 10 11 0 20 -4 20 -10z"/>
<path d="M2698 4283 c-8 -36 2 -53 33 -53 16 0 29 4 29 8 0 5 -10 8 -22 8 -17
-1 -23 5 -23 19 0 14 6 20 23 19 12 0 22 3 22 8 0 4 -13 8 -29 8 -19 0 -30 -6
-33 -17z"/>
<path d="M2835 4269 c4 -32 11 -46 19 -38 7 7 -6 69 -14 69 -5 0 -7 -14 -5
-31z"/>
<path d="M2893 4265 c0 -22 2 -30 4 -17 2 12 2 30 0 40 -3 9 -5 -1 -4 -23z"/>
<path d="M2937 4293 c-11 -10 -8 -63 3 -63 6 0 10 11 10 25 0 13 8 29 18 34
15 9 15 10 -4 11 -11 0 -24 -3 -27 -7z"/>
<path d="M2994 4286 c-11 -29 1 -51 29 -54 15 -2 27 1 27 6 0 6 -9 8 -20 5
-11 -3 -20 0 -20 6 0 6 12 11 26 11 18 0 25 5 22 17 -2 9 -9 18 -16 21 -7 2
-10 -2 -6 -12 4 -11 1 -16 -11 -16 -11 0 -15 5 -11 15 3 8 1 15 -5 15 -5 0
-12 -6 -15 -14z"/>
<path d="M3242 4268 c3 -29 7 -33 34 -36 34 -3 49 16 39 49 -5 14 -16 19 -41
19 -34 0 -35 -1 -32 -32z m58 2 c0 -24 -26 -38 -42 -22 -16 16 -2 42 22 42 13
0 20 -7 20 -20z"/>
<path d="M3347 4293 c-4 -3 -7 -13 -7 -22 1 -14 2 -13 11 2 12 21 39 23 39 2
0 -8 5 -15 10 -15 14 0 13 13 -2 28 -13 13 -41 16 -51 5z"/>
<path d="M3430 4261 c0 -23 5 -41 10 -41 6 0 10 15 10 34 0 19 -4 38 -10 41
-6 4 -10 -10 -10 -34z"/>
<path d="M3468 4293 c6 -3 12 -20 12 -39 0 -21 4 -33 10 -29 6 3 10 19 10 36
0 45 28 38 33 -8 l4 -38 1 42 2 42 -42 -1 c-24 0 -37 -3 -30 -5z"/>
<path d="M4400 4073 c0 -125 0 -404 0 -620 0 -366 -1 -392 -17 -396 -17 -4
-17 -5 0 -6 27 -2 23 -48 -5 -54 -16 -4 -14 -5 6 -4 l29 2 1 418 c1 341 3 419
15 426 11 7 11 9 0 13 -11 4 -13 45 -11 220 2 146 0 218 -7 223 -8 4 -11 -62
-11 -222z"/>
<path d="M1789 4273 c-13 -16 -12 -17 4 -4 9 7 17 15 17 17 0 8 -8 3 -21 -13z"/>
<path d="M3662 4128 c2 -164 5 -145 10 55 2 59 0 107 -4 107 -5 0 -7 -73 -6
-162z"/>
<path d="M1795 4230 c-10 -11 -23 -17 -29 -13 -6 3 -8 3 -4 -2 9 -10 -18 -50
-35 -50 -6 0 -12 -4 -13 -10 -2 -20 -16 -45 -24 -40 -4 3 -13 -2 -19 -9 -7 -9
-8 -17 -3 -20 6 -3 42 32 81 79 40 47 70 85 68 85 -2 0 -12 -9 -22 -20z"/>
<path d="M1569 4163 c-13 -16 -12 -17 4 -4 16 13 21 21 13 21 -2 0 -10 -8 -17
-17z"/>
<path d="M1485 4070 c-3 -5 -1 -10 4 -10 6 0 11 5 11 10 0 6 -2 10 -4 10 -3 0
-8 -4 -11 -10z"/>
<path d="M1645 4066 c-5 -7 -16 -23 -24 -37 -13 -24 -13 -24 14 2 15 15 26 31
24 37 -3 6 -8 5 -14 -2z"/>
<path d="M2821 4023 c0 -11 3 -13 6 -5 2 6 13 12 23 12 10 0 21 -6 23 -12 3
-8 6 -6 6 5 1 12 -7 17 -29 17 -22 0 -30 -5 -29 -17z"/>
<path d="M3210 4030 c-9 -6 -10 -10 -3 -10 6 0 14 -15 16 -32 3 -29 4 -27 5
10 1 23 1 42 0 42 -2 0 -10 -5 -18 -10z"/>
<path d="M3266 4016 c-6 -25 1 -56 13 -56 4 0 5 16 3 35 -3 21 0 35 7 35 6 0
11 -17 11 -37 0 -26 3 -34 11 -26 6 6 9 23 7 39 -4 39 -43 47 -52 10z"/>
<path d="M3336 4031 c-4 -5 3 -7 14 -4 24 6 26 -9 5 -27 -22 -18 -18 -40 8
-40 17 0 19 2 7 10 -12 7 -12 12 -2 22 19 19 15 48 -7 48 -11 0 -22 -4 -25 -9z"/>
<path d="M5200 4026 c0 -2 11 -6 25 -8 14 -3 25 -1 25 3 0 5 -11 9 -25 9 -14
0 -25 -2 -25 -4z"/>
<path d="M2918 4013 c6 -2 18 -2 25 0 6 3 1 5 -13 5 -14 0 -19 -2 -12 -5z"/>
<path d="M2982 3993 c2 -20 9 -28 23 -28 14 0 21 8 23 28 3 23 0 27 -23 27
-23 0 -26 -4 -23 -27z m38 -3 c0 -11 -7 -20 -15 -20 -8 0 -15 9 -15 20 0 11 7
20 15 20 8 0 15 -9 15 -20z"/>
<path d="M3050 3993 l1 -28 14 25 15 25 6 -22 c8 -28 24 -30 24 -3 0 11 5 20
10 20 6 0 10 -10 10 -22 0 -15 3 -19 10 -12 22 22 -1 44 -46 44 -41 0 -44 -2
-44 -27z"/>
<path d="M11373 3985 c0 -22 2 -30 4 -17 2 12 2 30 0 40 -3 9 -5 -1 -4 -23z"/>
<path d="M11858 4013 c57 -2 147 -2 200 0 53 1 7 3 -103 3 -110 0 -154 -2 -97
-3z"/>
<path d="M12333 4013 c53 -2 141 -2 195 0 53 1 9 3 -98 3 -107 0 -151 -2 -97
-3z"/>
<path d="M12638 4013 c7 -3 16 -2 19 1 4 3 -2 6 -13 5 -11 0 -14 -3 -6 -6z"/>
<path d="M12678 4013 c7 -3 16 -2 19 1 4 3 -2 6 -13 5 -11 0 -14 -3 -6 -6z"/>
<path d="M7442 3985 c0 -16 2 -22 5 -12 2 9 2 23 0 30 -3 6 -5 -1 -5 -18z"/>
<path d="M11653 3978 c1 -23 7 -33 20 -34 11 -1 12 0 3 3 -8 2 -17 17 -20 34
-6 28 -6 28 -3 -3z"/>
<path d="M1579 3973 l-24 -28 28 24 c25 23 32 31 24 31 -2 0 -14 -12 -28 -27z"/>
<path d="M6143 3973 c9 -2 23 -2 30 0 6 3 -1 5 -18 5 -16 0 -22 -2 -12 -5z"/>
<path d="M6317 3973 c-3 -5 -1 -17 4 -28 7 -17 8 -17 8 8 1 27 -4 34 -12 20z"/>
<path d="M11693 3973 c9 -2 23 -2 30 0 6 3 -1 5 -18 5 -16 0 -22 -2 -12 -5z"/>
<path d="M6968 3963 c6 -2 18 -2 25 0 6 3 1 5 -13 5 -14 0 -19 -2 -12 -5z"/>
<path d="M10908 3963 c6 -2 18 -2 25 0 6 3 1 5 -13 5 -14 0 -19 -2 -12 -5z"/>
<path d="M6008 3953 c6 -2 18 -2 25 0 6 3 1 5 -13 5 -14 0 -19 -2 -12 -5z"/>
<path d="M6073 3953 c15 -2 39 -2 55 0 15 2 2 4 -28 4 -30 0 -43 -2 -27 -4z"/>
<path d="M12156 3951 c-4 -7 -5 -15 -2 -18 9 -9 19 4 14 18 -4 11 -6 11 -12 0z"/>
<path d="M12604 3949 c-3 -6 0 -15 7 -20 22 -14 29 -11 29 11 0 21 -24 27 -36
9z"/>
<path d="M11234 3815 c0 -77 2 -107 3 -67 2 40 2 103 0 140 -2 37 -3 4 -3 -73z"/>
<path d="M11265 3315 l0 -630 45 -1 45 -1 -42 4 -43 4 -3 627 -2 627 0 -630z"/>
<path d="M11757 3939 c7 -7 15 -10 18 -7 3 3 -2 9 -12 12 -14 6 -15 5 -6 -5z"/>
<path d="M12230 3940 c0 -6 7 -10 15 -10 8 0 15 2 15 4 0 2 -7 6 -15 10 -8 3
-15 1 -15 -4z"/>
<path d="M11938 3933 c12 -2 30 -2 40 0 9 3 -1 5 -23 4 -22 0 -30 -2 -17 -4z"/>
<path d="M12278 3933 c7 -3 16 -2 19 1 4 3 -2 6 -13 5 -11 0 -14 -3 -6 -6z"/>
<path d="M12448 3933 c7 -3 16 -2 19 1 4 3 -2 6 -13 5 -11 0 -14 -3 -6 -6z"/>
<path d="M12543 3933 c9 -2 25 -2 35 0 9 3 1 5 -18 5 -19 0 -27 -2 -17 -5z"/>
<path d="M1450 3915 c-8 -9 -8 -15 -2 -15 12 0 26 19 19 26 -2 2 -10 -2 -17
-11z"/>
<path d="M1513 3895 c-15 -19 -34 -35 -40 -35 -7 0 -13 -6 -13 -14 0 -7 -11
-21 -25 -30 -14 -9 -24 -20 -23 -24 3 -11 -23 -54 -30 -48 -8 9 -52 -35 -52
-52 0 -7 -21 -39 -47 -70 -27 -31 -41 -52 -33 -47 8 5 21 17 28 27 13 18 175
214 210 253 9 11 28 32 41 48 14 15 22 27 18 27 -3 0 -19 -16 -34 -35z m-133
-158 c0 -2 -10 -12 -22 -23 l-23 -19 19 23 c18 21 26 27 26 19z"/>
<path d="M12700 3329 l0 -604 -30 -2 c-17 -1 -30 2 -30 8 0 6 -4 7 -10 4 -5
-3 -37 -6 -71 -6 -92 -1 -62 -12 38 -14 49 -2 91 -3 95 -4 4 0 9 -27 11 -58
l3 -58 2 60 c2 57 3 59 18 37 8 -12 13 -30 10 -40 -3 -9 -2 -23 3 -30 5 -8 8
-1 8 20 0 18 -8 45 -18 59 -17 25 -19 61 -19 624 0 329 -2 600 -5 603 -3 3 -5
-267 -5 -599z"/>
<path d="M3662 3878 c-1 -22 -7 -38 -14 -38 -9 0 -9 -3 0 -12 18 -18 17 -474
0 -481 -10 -4 -10 -6 0 -6 9 -1 12 -40 12 -159 l0 -158 -37 -45 c-56 -67 -63
-81 -16 -30 24 25 47 45 52 44 4 -1 9 75 10 170 1 107 6 174 13 178 7 4 7 9
-1 13 -7 5 -11 79 -11 235 l0 227 38 11 37 10 -37 2 c-35 1 -37 3 -41 39 l-4
37 -1 -37z"/>
<path d="M5637 3863 c-13 -12 -7 -33 8 -33 8 0 15 9 15 20 0 20 -11 26 -23 13z"/>
<path d="M6151 3861 c-9 -6 -4 -10 18 -13 24 -4 28 -2 20 9 -13 15 -19 16 -38
4z"/>
<path d="M6192 3755 c0 -16 2 -22 5 -12 2 9 2 23 0 30 -3 6 -5 -1 -5 -18z"/>
<path d="M10015 3710 c-9 -28 12 -62 37 -58 12 2 24 10 26 18 5 13 3 13 -12 1
-15 -12 -19 -12 -33 2 -23 22 -9 51 22 45 13 -3 22 -1 19 3 -10 17 -53 9 -59
-11z"/>
<path d="M10113 3690 c0 -25 2 -35 4 -22 2 12 2 32 0 45 -2 12 -4 2 -4 -23z"/>
<path d="M8247 3713 c-12 -12 -7 -50 8 -63 16 -13 55 -5 55 12 0 6 -6 5 -16
-2 -12 -11 -18 -10 -32 4 -14 13 -14 20 -4 36 11 19 3 28 -11 13z"/>
<path d="M8280 3716 c0 -2 7 -6 15 -10 8 -3 15 -1 15 4 0 6 -7 10 -15 10 -8 0
-15 -2 -15 -4z"/>
<path d="M8338 3696 c-3 -14 -1 -31 3 -38 6 -8 9 1 9 25 0 42 -6 48 -12 13z"/>
<path d="M6603 3703 c-14 -5 -18 -73 -5 -73 5 0 7 13 4 29 -5 34 12 48 35 29
14 -11 15 -11 11 2 -5 16 -25 22 -45 13z"/>
<path d="M6683 3670 c0 -25 2 -35 4 -22 2 12 2 32 0 45 -2 12 -4 2 -4 -23z"/>
<path d="M10153 3704 c9 -3 17 -14 17 -24 0 -10 -8 -21 -17 -24 -11 -3 -7 -4
7 -3 20 2 25 7 25 27 0 20 -5 25 -25 27 -14 1 -18 0 -7 -3z"/>
<path d="M10207 3703 c-12 -11 -8 -23 7 -23 8 0 18 -5 22 -12 5 -8 0 -9 -14
-6 -12 4 -20 2 -16 -3 9 -15 44 -10 44 5 0 8 -9 18 -20 21 -11 4 -18 11 -15
16 7 10 1 12 -8 2z"/>
<path d="M10277 3703 c-12 -11 -8 -23 7 -23 8 0 18 -5 22 -12 5 -8 0 -9 -14
-6 -12 4 -20 2 -16 -3 8 -14 44 -10 44 5 0 8 -8 17 -17 21 -17 7 -16 8 2 15
20 8 20 9 -1 9 -11 1 -24 -2 -27 -6z"/>
<path d="M10341 3678 c1 -22 3 -26 6 -13 3 11 10 26 15 33 8 9 6 12 -6 12 -12
0 -16 -9 -15 -32z"/>
<path d="M10394 3695 c-16 -41 27 -60 50 -22 8 14 8 20 -4 27 -22 14 -40 12
-46 -5z m41 -15 c0 -8 -8 -16 -17 -18 -13 -2 -18 3 -18 18 0 15 5 20 18 18 9
-2 17 -10 17 -18z"/>
<path d="M10464 3696 c-3 -8 -4 -21 -1 -28 3 -7 6 -3 6 10 1 27 37 31 45 5 4
-14 4 -14 3 2 -3 25 -44 33 -53 11z"/>
<path d="M10542 3680 c0 -19 2 -27 5 -17 2 9 2 25 0 35 -3 9 -5 1 -5 -18z"/>
<path d="M10578 3683 c5 -21 7 -23 10 -9 2 10 0 22 -6 28 -6 6 -7 0 -4 -19z"/>
<path d="M10618 3683 c5 -21 7 -23 10 -9 2 10 0 22 -6 28 -6 6 -7 0 -4 -19z"/>
<path d="M8395 3679 c6 -33 15 -36 15 -6 0 15 -4 27 -9 27 -6 0 -8 -10 -6 -21z"/>
<path d="M8430 3685 c0 -8 6 -15 14 -15 8 0 18 -5 22 -12 5 -8 0 -9 -16 -5
-16 4 -20 3 -12 -5 12 -12 42 -4 42 13 0 6 -9 13 -20 16 -11 3 -17 9 -14 14 3
5 0 9 -5 9 -6 0 -11 -7 -11 -15z"/>
<path d="M8500 3686 c0 -9 7 -16 15 -16 8 0 15 -5 15 -11 0 -6 -7 -9 -15 -5
-8 3 -15 1 -15 -4 0 -14 37 -12 46 2 4 6 2 14 -4 16 -7 2 -19 10 -27 19 -13
13 -15 13 -15 -1z"/>
<path d="M8560 3676 c0 -14 5 -28 10 -31 6 -3 10 5 10 19 0 13 6 27 13 29 6 3
2 6 -10 6 -18 1 -23 -5 -23 -23z"/>
<path d="M8617 3693 c-20 -19 1 -53 33 -53 14 0 20 31 10 48 -8 14 -9 13 -7
-8 1 -17 -3 -25 -13 -25 -9 0 -15 9 -14 23 1 24 0 25 -9 15z"/>
<path d="M8690 3675 c0 -28 25 -44 42 -27 8 8 4 9 -12 5 -20 -5 -22 -3 -18 20
3 15 1 27 -3 27 -5 0 -9 -11 -9 -25z"/>
<path d="M8726 3685 c4 -8 8 -15 10 -15 2 0 4 7 4 15 0 8 -4 15 -10 15 -5 0
-7 -7 -4 -15z"/>
<path d="M8761 3673 c0 -25 1 -26 9 -8 12 27 12 35 0 35 -5 0 -10 -12 -9 -27z"/>
<path d="M8800 3675 c0 -14 2 -25 4 -25 2 0 6 11 8 25 3 14 1 25 -3 25 -5 0
-9 -11 -9 -25z"/>
<path d="M8840 3678 c0 -16 5 -28 10 -28 13 0 13 20 0 40 -8 12 -10 9 -10 -12z"/>
<path d="M5632 3664 c4 -21 22 -23 26 -1 2 10 -3 17 -13 17 -10 0 -15 -6 -13
-16z"/>
<path d="M6744 3671 c4 -5 0 -12 -6 -14 -10 -4 -10 -6 0 -6 7 -1 10 -5 7 -11
-3 -5 -1 -10 4 -10 6 0 11 11 11 25 0 14 -5 25 -11 25 -5 0 -8 -4 -5 -9z"/>
<path d="M6780 3670 c0 -8 11 -20 25 -27 14 -6 25 -7 25 -2 0 5 -8 13 -17 16
-10 4 -21 11 -25 17 -5 7 -8 5 -8 -4z"/>
<path d="M6851 3668 c-1 -10 5 -18 13 -18 8 0 17 -6 19 -12 3 -8 6 -6 6 5 1 9
-5 17 -13 17 -8 0 -17 6 -19 13 -3 7 -6 5 -6 -5z"/>
<path d="M6910 3655 c0 -14 5 -25 10 -25 6 0 10 9 10 19 0 11 6 22 13 24 6 3
2 6 -10 6 -18 1 -23 -5 -23 -24z"/>
<path d="M6960 3655 c0 -14 3 -25 8 -25 4 0 7 11 7 25 0 14 -3 25 -7 25 -5 0
-8 -11 -8 -25z"/>
<path d="M6995 3655 c0 -14 3 -25 8 -25 4 0 7 11 7 25 0 14 -3 25 -7 25 -5 0
-8 -11 -8 -25z"/>
<path d="M7040 3655 c0 -14 3 -25 8 -25 4 0 7 11 7 25 0 14 -3 25 -7 25 -5 0
-8 -11 -8 -25z"/>
<path d="M7078 3655 c2 -14 6 -25 8 -25 2 0 4 11 4 25 0 14 -4 25 -9 25 -4 0
-6 -11 -3 -25z"/>
<path d="M7111 3653 c0 -25 1 -26 9 -8 12 27 12 35 0 35 -5 0 -10 -12 -9 -27z"/>
<path d="M7150 3655 c0 -14 2 -25 4 -25 2 0 6 11 8 25 3 14 1 25 -3 25 -5 0
-9 -11 -9 -25z"/>
<path d="M7192 3655 c0 -16 2 -22 5 -12 2 9 2 23 0 30 -3 6 -5 -1 -5 -18z"/>
<path d="M8360 3655 c0 -8 4 -15 8 -15 5 0 9 7 9 15 0 8 -4 15 -9 15 -4 0 -8
-7 -8 -15z"/>
<path d="M10488 3653 c7 -3 16 -2 19 1 4 3 -2 6 -13 5 -11 0 -14 -3 -6 -6z"/>
<path d="M6635 3640 c-3 -5 -1 -10 4 -10 6 0 11 5 11 10 0 6 -2 10 -4 10 -3 0
-8 -4 -11 -10z"/>
<path d="M5311 3604 c0 -11 3 -14 6 -6 3 7 2 16 -1 19 -3 4 -6 -2 -5 -13z"/>
<path d="M1209 3583 l-24 -28 28 24 c25 23 32 31 24 31 -2 0 -14 -12 -28 -27z"/>
<path d="M4318 3603 c12 -2 32 -2 45 0 12 2 2 4 -23 4 -25 0 -35 -2 -22 -4z"/>
<path d="M6192 3585 c0 -16 2 -22 5 -12 2 9 2 23 0 30 -3 6 -5 -1 -5 -18z"/>
<path d="M5287 3571 c3 -13 -1 -21 -14 -24 -16 -4 -16 -5 0 -6 13 -1 17 -10
17 -46 0 -42 -2 -45 -27 -45 -21 0 -24 -3 -14 -9 8 -5 20 -7 28 -4 9 4 13 -5
13 -30 0 -25 -5 -37 -17 -40 -14 -4 -12 -5 5 -6 21 -1 22 2 22 89 0 53 4 90
10 90 6 0 10 8 10 18 0 14 -2 15 -10 2 -8 -12 -10 -11 -10 8 0 12 -4 22 -9 22
-5 0 -7 -9 -4 -19z"/>
<path d="M3833 3573 c-7 -3 -12 -17 -12 -31 1 -21 2 -23 6 -7 3 11 10 23 16
27 14 9 6 17 -10 11z"/>
<path d="M3970 3570 c0 -5 5 -10 11 -10 5 0 7 5 4 10 -3 6 -8 10 -11 10 -2 0
-4 -4 -4 -10z"/>
<path d="M11671 3543 c1 -21 3 -30 6 -20 2 9 7 17 10 17 4 0 16 -8 27 -17 15
-13 17 -14 9 -2 -9 11 -9 19 -2 26 16 16 2 33 -27 33 -21 0 -24 -4 -23 -37z
m49 17 c0 -5 -9 -10 -20 -10 -11 0 -20 5 -20 10 0 6 9 10 20 10 11 0 20 -4 20
-10z"/>
<path d="M3698 3294 l3 -274 182 0 182 0 0 274 c0 151 -3 272 -7 269 -5 -2 -8
-94 -8 -203 0 -181 -2 -199 -17 -203 -17 -4 -17 -5 0 -6 14 -1 17 -11 17 -56
l0 -55 -170 1 -170 1 0 49 c0 42 3 51 23 59 l22 9 -22 0 -23 1 0 199 c0 110
-3 202 -7 204 -5 3 -7 -118 -5 -269z"/>
<path d="M11220 3550 c19 -13 30 -13 30 0 0 6 -10 10 -22 10 -19 0 -20 -2 -8
-10z"/>
<path d="M11760 3553 c8 -3 19 -11 23 -17 6 -7 7 -6 4 4 -2 8 -12 16 -23 17
-13 2 -15 1 -4 -4z"/>
<path d="M11818 3553 c7 -3 16 -2 19 1 4 3 -2 6 -13 5 -11 0 -14 -3 -6 -6z"/>
<path d="M11864 3545 c-4 -9 -4 -19 0 -22 3 -4 6 1 6 10 0 19 15 23 23 7 3 -6
4 -5 3 2 -4 19 -25 21 -32 3z"/>
<path d="M11922 3535 c0 -16 2 -22 5 -12 2 9 2 23 0 30 -3 6 -5 -1 -5 -18z"/>
<path d="M12012 3535 c0 -16 2 -22 5 -12 2 9 2 23 0 30 -3 6 -5 -1 -5 -18z"/>
<path d="M12065 3550 c3 -5 8 -10 11 -10 2 0 4 5 4 10 0 6 -5 10 -11 10 -5 0
-7 -4 -4 -10z"/>
<path d="M12103 3544 c-3 -8 0 -21 6 -27 9 -9 11 -8 5 7 -4 11 -2 21 7 27 10
6 11 9 1 9 -7 0 -15 -7 -19 -16z"/>
<path d="M12141 3545 c-2 -11 -4 -28 -6 -39 -2 -12 0 -15 6 -9 6 6 9 23 6 39
-3 19 -5 22 -6 9z"/>
<path d="M1140 3541 c0 -6 4 -13 10 -16 6 -3 7 1 4 9 -7 18 -14 21 -14 7z"/>
<path d="M1185 3518 c-16 -17 -30 -33 -30 -37 -1 -14 -38 -60 -45 -56 -4 3
-12 -1 -18 -8 -10 -12 -12 -17 -12 -38 0 -5 -4 -8 -9 -5 -10 6 -34 -19 -37
-39 -3 -24 -146 -185 -158 -178 -6 3 -8 3 -4 -2 4 -4 -6 -18 -23 -32 -16 -14
-27 -29 -23 -34 3 -5 0 -9 -5 -9 -6 0 -10 -5 -9 -12 2 -7 -3 -12 -11 -13 -11
0 -27 -35 -16 -35 2 0 47 53 102 117 54 65 108 129 119 143 128 149 214 255
214 262 0 10 0 11 -35 -24z m-115 -152 c0 -2 -8 -10 -17 -17 -16 -13 -17 -12
-4 4 13 16 21 21 21 13z m-200 -239 c0 -2 -10 -12 -22 -23 l-23 -19 19 23 c18
21 26 27 26 19z"/>
<path d="M5203 3543 c9 -2 23 -2 30 0 6 3 -1 5 -18 5 -16 0 -22 -2 -12 -5z"/>
<path d="M12042 3530 c0 -14 2 -19 5 -12 2 6 2 18 0 25 -3 6 -5 1 -5 -13z"/>
<path d="M5430 3525 c0 -8 7 -15 15 -15 8 0 15 7 15 15 0 8 -7 15 -15 15 -8 0
-15 -7 -15 -15z"/>
<path d="M5523 3525 c0 -8 6 -15 14 -15 7 0 13 7 13 15 0 8 -6 15 -13 15 -8 0
-14 -7 -14 -15z"/>
<path d="M8427 3533 c-2 -5 -1 -19 4 -33 7 -23 7 -23 8 8 1 31 -3 40 -12 25z"/>
<path d="M8467 3533 c-10 -10 -8 -23 4 -23 5 0 8 4 5 9 -4 5 0 12 6 14 7 3 8
6 2 6 -6 1 -14 -2 -17 -6z"/>
<path d="M11800 3531 c0 -6 4 -13 10 -16 6 -3 7 1 4 9 -7 18 -14 21 -14 7z"/>
<path d="M11960 3520 c0 -5 5 -10 10 -10 6 0 10 5 10 10 0 6 -4 10 -10 10 -5
0 -10 -4 -10 -10z"/>
<path d="M4187 3500 c-3 -11 -1 -23 4 -26 5 -3 9 6 9 20 0 31 -6 34 -13 6z"/>
<path d="M10267 3513 c-2 -5 -1 -19 4 -33 7 -23 7 -23 8 8 1 31 -3 40 -12 25z"/>
<path d="M10350 3516 c0 -9 30 -14 35 -6 4 6 -3 10 -14 10 -12 0 -21 -2 -21
-4z"/>
<path d="M8532 3494 c-7 -8 -8 -14 -3 -14 10 0 25 19 20 25 -2 1 -10 -3 -17
-11z"/>
<path d="M9394 3205 c0 -165 2 -234 3 -153 2 81 2 216 0 300 -1 84 -3 18 -3
-147z"/>
<path d="M10325 3491 c4 -8 2 -17 -6 -22 -9 -6 -10 -9 -2 -9 19 0 27 21 13 33
-10 9 -11 9 -5 -2z"/>
<path d="M8468 3483 c7 -3 16 -2 19 1 4 3 -2 6 -13 5 -11 0 -14 -3 -6 -6z"/>
<path d="M6757 3463 c-2 -5 -1 -19 4 -33 7 -23 7 -23 8 8 1 31 -3 40 -12 25z"/>
<path d="M6795 3460 c-3 -6 1 -7 9 -4 18 7 21 14 7 14 -6 0 -13 -4 -16 -10z"/>
<path d="M6850 3460 c-9 -6 -10 -10 -3 -10 6 0 14 -10 16 -22 3 -17 5 -14 6
10 1 36 2 35 -19 22z"/>
<path d="M6192 3415 c0 -16 2 -22 5 -12 2 9 2 23 0 30 -3 6 -5 -1 -5 -18z"/>
<path d="M13305 3340 c-16 -7 -17 -9 -3 -9 9 -1 20 4 23 9 7 11 7 11 -20 0z"/>
<path d="M13319 3307 c4 -4 66 -6 137 -5 l129 3 -137 5 c-75 3 -134 1 -129 -3z"/>
<path d="M6192 3240 c0 -14 2 -19 5 -12 2 6 2 18 0 25 -3 6 -5 1 -5 -13z"/>
<path d="M5278 3183 c7 -3 16 -2 19 1 4 3 -2 6 -13 5 -11 0 -14 -3 -6 -6z"/>
<path d="M5217 3153 c-4 -3 -7 -11 -7 -17 0 -7 3 -7 8 0 4 7 18 14 32 17 l25
4 -26 2 c-14 0 -29 -2 -32 -6z"/>
<path d="M3349 3063 c-31 -36 -261 -310 -323 -386 -26 -32 -46 -61 -43 -63 2
-2 19 15 38 39 18 23 107 129 196 235 90 106 163 195 163 198 0 9 -7 3 -31
-23z"/>
<path d="M3346 3008 c-34 -44 -41 -55 -16 -28 42 46 84 100 78 100 -2 0 -30
-33 -62 -72z"/>
<path d="M4201 3048 c-1 -14 -13 -18 -58 -20 l-58 -3 63 -5 c35 -3 65 -3 67 0
1 3 -1 14 -6 25 -6 16 -8 17 -8 3z"/>
<path d="M4328 3053 c7 -3 16 -2 19 1 4 3 -2 6 -13 5 -11 0 -14 -3 -6 -6z"/>
<path d="M4446 3053 c5 -5 12 -12 16 -18 4 -6 8 -2 8 8 0 9 -7 17 -17 17 -9 0
-12 -3 -7 -7z"/>
<path d="M1079 3033 c-13 -17 -13 -17 6 -3 11 8 22 16 24 17 2 2 0 3 -6 3 -6
0 -17 -8 -24 -17z"/>
<path d="M1120 3035 c-7 -9 -8 -15 -2 -15 5 0 12 7 16 15 3 8 4 15 2 15 -2 0
-9 -7 -16 -15z"/>
<path d="M4358 3023 c7 -3 16 -2 19 1 4 3 -2 6 -13 5 -11 0 -14 -3 -6 -6z"/>
<path d="M3747 3003 c-4 -3 -7 -78 -7 -165 l0 -158 190 0 189 0 3 161 c2 88 1
163 -1 165 -7 7 -367 4 -374 -3z m353 -158 l0 -145 -170 0 -170 0 0 138 c0 76
3 141 6 145 3 3 80 6 170 6 l164 1 0 -145z"/>
<path d="M3722 2939 c-2 -65 -3 -68 -59 -136 -99 -120 -156 -187 -192 -225
-19 -21 -30 -38 -25 -38 6 0 72 74 148 165 l137 165 -4 68 -3 67 -2 -66z"/>
<path d="M4452 2984 c-7 -8 -8 -14 -3 -14 10 0 25 19 20 25 -2 1 -10 -3 -17
-11z"/>
<path d="M731 2967 c-13 -21 -12 -21 5 -5 10 10 16 20 13 22 -3 3 -11 -5 -18
-17z"/>
<path d="M4388 2973 c7 -3 16 -2 19 1 4 3 -2 6 -13 5 -11 0 -14 -3 -6 -6z"/>
<path d="M3254 2898 c-56 -63 -77 -88 -72 -88 3 0 28 27 57 60 55 63 66 83 15
28z"/>
<path d="M11233 2855 c0 -44 2 -61 4 -37 2 23 2 59 0 80 -2 20 -4 1 -4 -43z"/>
<path d="M9246 2900 c-19 -6 -19 -7 2 -12 12 -4 24 -2 27 2 8 13 -8 18 -29 10z"/>
<path d="M9536 2898 c-12 -7 -16 -24 -16 -77 0 -63 2 -69 23 -74 20 -5 20 -5
5 7 -14 10 -18 28 -18 74 l0 61 33 3 c26 2 28 4 11 9 -12 4 -29 2 -38 -3z"/>
<path d="M3649 2873 c-13 -16 -12 -17 4 -4 16 13 21 21 13 21 -2 0 -10 -8 -17
-17z"/>
<path d="M5213 2800 c0 -36 2 -50 4 -32 2 17 2 47 0 65 -2 17 -4 3 -4 -33z"/>
<path d="M5183 2795 c0 -33 2 -45 4 -27 2 18 2 45 0 60 -2 15 -4 0 -4 -33z"/>
<path d="M3604 2818 l-19 -23 23 19 c21 18 27 26 19 26 -2 0 -12 -10 -23 -22z"/>
<path d="M563 2811 c15 -22 14 -25 -5 -52 -12 -15 -25 -26 -30 -23 -5 3 -7 0
-6 -8 2 -7 -3 -12 -10 -10 -8 1 -11 -2 -7 -8 9 -15 8 -15 61 47 27 31 43 54
36 49 -8 -5 -21 -1 -34 11 -22 18 -22 18 -5 -6z"/>
<path d="M8957 2790 c-3 -11 -1 -20 4 -20 5 0 9 9 9 20 0 11 -2 20 -4 20 -2 0
-6 -9 -9 -20z"/>
<path d="M9842 2785 c0 -16 2 -22 5 -12 2 9 2 23 0 30 -3 6 -5 -1 -5 -18z"/>
<path d="M3124 2743 c-27 -31 -44 -54 -37 -50 14 9 97 107 90 107 -2 0 -26
-26 -53 -57z"/>
<path d="M3549 2753 l-24 -28 28 24 c25 23 32 31 24 31 -2 0 -14 -12 -28 -27z"/>
<path d="M9573 2765 c0 -8 4 -12 9 -9 5 3 6 10 3 15 -9 13 -12 11 -12 -6z"/>
<path d="M9686 2771 c-4 -7 -5 -15 -2 -18 9 -9 19 4 14 18 -4 11 -6 11 -12 0z"/>
<path d="M10790 2736 c0 -38 -3 -45 -22 -49 -20 -4 -19 -4 5 -6 26 -1 27 1 27
49 0 28 -2 50 -5 50 -3 0 -5 -20 -5 -44z"/>
<path d="M3392 2704 l-54 -65 42 -40 c27 -26 37 -32 29 -17 -7 13 -12 27 -11
31 1 5 -1 6 -5 4 -5 -3 -17 1 -27 9 -19 13 -19 14 -1 34 10 11 22 17 28 13 6
-3 7 -1 3 5 -4 6 6 25 22 43 l28 31 33 -27 c26 -22 35 -25 44 -15 9 10 9 11
-3 7 -8 -2 -28 8 -45 24 l-30 28 -53 -65z"/>
<path d="M6192 2735 c0 -16 2 -22 5 -12 2 9 2 23 0 30 -3 6 -5 -1 -5 -18z"/>
<path d="M9829 2717 c3 -31 6 -37 11 -22 7 20 2 52 -9 59 -3 3 -5 -14 -2 -37z"/>
<path d="M11170 2756 c0 -2 7 -7 16 -10 8 -3 12 -2 9 4 -6 10 -25 14 -25 6z"/>
<path d="M11234 2705 c1 -42 4 -50 21 -52 15 -1 15 0 3 3 -12 4 -18 19 -21 52
l-4 47 1 -50z"/>
<path d="M9862 2718 c-2 -35 0 -38 26 -37 22 1 23 2 5 6 -16 3 -23 13 -26 36
-4 31 -4 31 -5 -5z"/>
<path d="M11890 2731 c-14 -4 -38 -6 -55 -4 -19 1 -25 -1 -17 -6 8 -5 28 -6
45 -4 18 3 45 5 60 6 18 0 23 3 15 9 -15 9 -14 9 -48 -1z"/>
<path d="M11966 2728 c2 -3 23 -5 47 -4 23 1 49 -2 57 -8 12 -8 13 -8 3 4 -13
14 -115 22 -107 8z"/>
<path d="M11711 2721 c-10 -7 -7 -9 12 -8 14 1 23 5 20 10 -6 9 -15 9 -32 -2z"/>
<path d="M12096 2722 c-2 -4 13 -6 35 -4 21 2 39 6 39 8 0 7 -69 4 -74 -4z"/>
<path d="M12230 2719 c0 -5 5 -7 10 -4 6 3 10 8 10 11 0 2 -4 4 -10 4 -5 0
-10 -5 -10 -11z"/>
<path d="M12264 2721 c3 -5 15 -7 26 -4 28 7 25 13 -6 13 -14 0 -23 -4 -20 -9z"/>
<path d="M12354 2722 c5 -8 66 -4 66 4 0 2 -16 4 -36 4 -19 0 -33 -4 -30 -8z"/>
<path d="M12430 2726 c0 -8 51 -13 56 -5 3 5 -9 9 -25 9 -17 0 -31 -2 -31 -4z"/>
<path d="M760 2716 c0 -2 8 -10 18 -17 15 -13 16 -12 3 4 -13 16 -21 21 -21
13z"/>
<path d="M11651 2708 c0 -9 -9 -18 -18 -20 -52 -11 64 -13 517 -8 l495 5 -492
3 c-459 2 -492 3 -496 20 -4 15 -5 15 -6 0z"/>
<path d="M483 2688 c-4 -7 -8 -15 -9 -18 0 -3 -4 -13 -9 -23 -6 -15 -10 -16
-17 -5 -8 10 -9 10 -5 -2 5 -18 -73 -114 -151 -186 -33 -31 -48 -51 -39 -51 9
0 35 22 58 49 22 27 45 45 51 42 6 -4 8 -2 5 3 -4 6 7 26 23 44 16 19 30 38
30 42 0 5 5 5 10 2 6 -3 10 0 10 8 0 8 7 20 15 27 28 23 56 68 46 74 -5 4 -13
1 -18 -6z m-193 -252 c0 -2 -8 -10 -17 -17 -16 -13 -17 -12 -4 4 13 16 21 21
21 13z"/>
<path d="M855 2680 c10 -11 20 -20 23 -20 3 0 -3 9 -13 20 -10 11 -20 20 -23
20 -3 0 3 -9 13 -20z"/>
<path d="M1109 2648 c-24 -29 -53 -63 -63 -75 -10 -12 -24 -19 -30 -16 -6 3
-8 3 -4 -2 4 -4 3 -14 -4 -22 -9 -11 -16 -9 -42 14 l-31 28 29 -32 29 -32 -44
-53 c-24 -29 -91 -109 -148 -177 -58 -68 -100 -122 -94 -120 6 2 43 42 82 89
40 47 77 84 82 82 5 -1 8 1 7 5 -2 5 5 19 15 33 9 13 17 21 17 16 0 -5 6 -3
14 4 8 6 12 19 9 27 -4 11 -2 14 5 9 8 -4 12 -1 12 10 0 10 3 14 7 11 10 -11
42 23 36 39 -3 8 -2 14 3 12 5 -1 19 3 32 10 28 16 30 -3 2 -20 -11 -7 -20
-17 -20 -23 0 -9 -73 -99 -204 -249 -28 -33 -46 -57 -39 -55 6 2 78 83 160
180 81 96 156 183 166 193 9 10 17 20 17 24 0 4 21 29 45 56 25 27 45 51 45
54 0 6 -33 31 -41 32 -3 0 -26 -24 -50 -52z m67 28 c7 -19 -104 -151 -128
-152 -10 -1 -17 4 -15 10 3 6 10 10 16 8 7 -1 10 2 6 8 -6 10 93 138 108 139
4 1 10 -5 13 -13z m-186 -200 c0 -2 -8 -10 -17 -17 -16 -13 -17 -12 -4 4 13
16 21 21 21 13z"/>
<path d="M1066 2572 c-3 -5 1 -9 9 -9 8 0 15 4 15 9 0 4 -4 8 -9 8 -6 0 -12
-4 -15 -8z"/>
<path d="M6155 2690 c-3 -5 1 -10 10 -10 9 0 13 5 10 10 -3 6 -8 10 -10 10 -2
0 -7 -4 -10 -10z"/>
<path d="M6223 2683 c15 -2 37 -2 50 0 12 2 0 4 -28 4 -27 0 -38 -2 -22 -4z"/>
<path d="M6365 2683 c38 -2 72 -9 76 -14 4 -7 9 -4 12 5 6 14 -4 16 -76 14
l-82 -2 70 -3z"/>
<path d="M6508 2683 c23 -2 61 -2 85 0 23 2 4 4 -43 4 -47 0 -66 -2 -42 -4z"/>
<path d="M6678 2683 c23 -2 61 -2 85 0 23 2 4 4 -43 4 -47 0 -66 -2 -42 -4z"/>
<path d="M6883 2683 c43 -2 110 -2 150 0 40 1 5 3 -78 3 -82 0 -115 -2 -72 -3z"/>
<path d="M8178 2683 c50 -2 134 -2 185 0 50 1 9 3 -93 3 -102 0 -143 -2 -92
-3z"/>
<path d="M10022 2683 c59 -2 158 -2 220 0 62 1 14 3 -107 3 -121 0 -172 -2
-113 -3z"/>
<path d="M10368 2683 c7 -3 16 -2 19 1 4 3 -2 6 -13 5 -11 0 -14 -3 -6 -6z"/>
<path d="M830 2655 c13 -14 26 -25 28 -25 3 0 -5 11 -18 25 -13 14 -26 25 -28
25 -3 0 5 -11 18 -25z"/>
<path d="M3032 2635 c-54 -59 -54 -60 -26 -61 19 -2 22 1 15 10 -8 9 -1 24 25
54 48 56 38 54 -14 -3z"/>
<path d="M3455 2640 c-16 -16 -25 -30 -19 -29 8 0 60 59 52 59 -3 0 -17 -13
-33 -30z"/>
<path d="M9914 2659 c-13 -5 -3 -8 29 -8 26 -1 47 1 47 3 0 8 -58 12 -76 5z"/>
<path d="M10318 2658 c-9 -5 -9 -8 -1 -8 6 0 14 -8 16 -17 4 -16 5 -16 6 -1 1
10 11 18 29 20 27 3 26 4 -5 9 -18 3 -38 2 -45 -3z"/>
<path d="M910 2635 c13 -14 26 -25 28 -25 3 0 -5 11 -18 25 -13 14 -26 25 -28
25 -3 0 5 -11 18 -25z"/>
<path d="M6493 2653 c9 -2 23 -2 30 0 6 3 -1 5 -18 5 -16 0 -22 -2 -12 -5z"/>
<path d="M6558 2653 c12 -2 30 -2 40 0 9 3 -1 5 -23 4 -22 0 -30 -2 -17 -4z"/>
<path d="M10008 2653 c7 -3 16 -2 19 1 4 3 -2 6 -13 5 -11 0 -14 -3 -6 -6z"/>
<path d="M10138 2653 c12 -2 30 -2 40 0 9 3 -1 5 -23 4 -22 0 -30 -2 -17 -4z"/>
<path d="M10233 2653 c9 -2 23 -2 30 0 6 3 -1 5 -18 5 -16 0 -22 -2 -12 -5z"/>
<path d="M10553 2653 c9 -2 25 -2 35 0 9 3 1 5 -18 5 -19 0 -27 -2 -17 -5z"/>
<path d="M10628 2653 c6 -2 18 -2 25 0 6 3 1 5 -13 5 -14 0 -19 -2 -12 -5z"/>
<path d="M10723 2653 c9 -2 23 -2 30 0 6 3 -1 5 -18 5 -16 0 -22 -2 -12 -5z"/>
<path d="M11633 2653 c9 -2 25 -2 35 0 9 3 1 5 -18 5 -19 0 -27 -2 -17 -5z"/>
<path d="M11948 2653 c111 -2 293 -2 405 0 111 1 20 2 -203 2 -223 0 -314 -1
-202 -2z"/>
<path d="M12621 2651 c-8 -6 -9 -11 -3 -15 6 -3 14 -1 17 5 9 14 2 20 -14 10z"/>
<path d="M885 2610 c10 -11 20 -20 23 -20 3 0 -3 9 -13 20 -10 11 -20 20 -23
20 -3 0 3 -9 13 -20z"/>
<path d="M11643 2598 c-9 -13 -10 -154 -1 -163 3 -3 5 29 4 72 -1 43 2 84 7
91 5 6 7 12 4 12 -2 0 -9 -6 -14 -12z"/>
<path d="M12737 2594 c-5 -6 1 -55 8 -62 2 -3 3 12 2 32 -1 20 -2 36 -3 36 0
0 -3 -3 -7 -6z"/>
<path d="M970 2586 c0 -2 8 -10 18 -17 15 -13 16 -12 3 4 -13 16 -21 21 -21
13z"/>
<path d="M12562 2573 c9 -2 19 -12 21 -21 4 -16 5 -16 6 0 0 9 9 19 19 21 9 3
-1 5 -23 5 -22 0 -32 -2 -23 -5z"/>
<path d="M12638 2573 c6 -2 18 -2 25 0 6 3 1 5 -13 5 -14 0 -19 -2 -12 -5z"/>
<path d="M12688 2573 c7 -3 16 -2 19 1 4 3 -2 6 -13 5 -11 0 -14 -3 -6 -6z"/>
<path d="M1231 2540 c0 -14 6 -50 14 -80 17 -71 18 -33 1 45 -8 33 -14 49 -15
35z"/>
<path d="M12126 2526 c3 -8 12 -17 20 -20 12 -4 12 -2 4 14 -12 23 -32 27 -24
6z"/>
<path d="M12739 2503 c0 -10 -2 -31 -3 -46 -1 -15 1 -32 5 -38 3 -6 7 15 8 45
1 31 -1 56 -4 56 -3 0 -5 -8 -6 -17z"/>
<path d="M12101 2494 c0 -11 3 -14 6 -6 3 7 2 16 -1 19 -3 4 -6 -2 -5 -13z"/>
<path d="M2841 2459 c-18 -22 -31 -42 -28 -45 2 -3 19 13 37 36 42 53 35 61
-9 9z"/>
<path d="M3689 2483 c-13 -16 -12 -17 4 -4 16 13 21 21 13 21 -2 0 -10 -8 -17
-17z"/>
<path d="M12225 2490 c3 -5 8 -10 11 -10 2 0 4 5 4 10 0 6 -5 10 -11 10 -5 0
-7 -4 -4 -10z"/>
<path d="M2889 2463 l-24 -28 28 24 c25 23 32 31 24 31 -2 0 -14 -12 -28 -27z"/>
<path d="M12356 2432 c-3 -4 4 -9 15 -9 23 -2 25 3 4 10 -8 4 -16 3 -19 -1z"/>
<path d="M2849 2413 c-13 -16 -12 -17 4 -4 9 7 17 15 17 17 0 8 -8 3 -21 -13z"/>
<path d="M11635 2398 c-10 -40 -12 -117 -2 -111 5 3 6 16 3 29 -4 13 -3 24 1
24 5 0 9 18 10 40 1 44 -4 52 -12 18z"/>
<path d="M212 2367 c-17 -18 -19 -24 -7 -24 8 0 13 3 10 5 -3 3 2 14 12 24 24
27 10 22 -15 -5z"/>
<path d="M1235 2379 c-4 -6 -4 -13 -1 -16 3 -4 6 -1 6 5 0 7 4 12 9 12 6 0 13
-20 17 -45 3 -25 9 -44 11 -41 3 3 2 26 -1 51 -7 43 -26 59 -41 34z"/>
<path d="M3079 2334 c-21 -22 -22 -27 -8 -34 9 -5 26 -17 38 -27 l22 -18 -32
-40 -31 -40 36 39 c33 36 35 41 21 56 -8 9 -12 19 -9 22 3 3 -2 5 -12 5 -9 -1
-19 4 -22 12 -3 8 0 11 6 7 6 -3 14 -1 18 5 4 8 3 9 -4 5 -7 -4 -12 -3 -12 3
0 22 22 21 53 -3 19 -15 38 -26 42 -26 4 0 -11 14 -33 30 -23 17 -43 30 -45
30 -2 0 -14 -12 -28 -26z"/>
<path d="M155 2301 c-3 -5 -2 -12 3 -15 5 -3 9 1 9 9 0 17 -3 19 -12 6z"/>
<path d="M1282 2237 c1 -26 5 -50 10 -53 4 -3 8 -1 8 5 0 5 8 12 18 14 16 4
16 5 0 6 -11 1 -20 12 -24 29 -10 48 -13 48 -12 -1z"/>
<path d="M3184 2232 c-55 -64 -66 -88 -15 -32 37 41 66 80 59 80 -2 0 -21 -21
-44 -48z"/>
<path d="M11626 2253 c-4 -9 -3 -20 1 -24 4 -4 9 3 9 17 2 28 -1 31 -10 7z"/>
<path d="M12510 2250 c0 -13 18 -22 24 -11 3 5 -1 11 -9 15 -8 3 -15 1 -15 -4z"/>
<path d="M12573 2233 c9 -2 23 -2 30 0 6 3 -1 5 -18 5 -16 0 -22 -2 -12 -5z"/>
<path d="M12653 2233 c9 -2 23 -2 30 0 6 3 -1 5 -18 5 -16 0 -22 -2 -12 -5z"/>
<path d="M11786 2215 c-3 -9 0 -15 9 -15 16 0 20 16 6 24 -5 3 -11 -1 -15 -9z"/>
<path d="M1261 2204 c0 -11 3 -14 6 -6 3 7 2 16 -1 19 -3 4 -6 -2 -5 -13z"/>
<path d="M12618 2213 l82 -4 0 -54 c0 -45 -3 -55 -17 -56 -14 0 -15 -2 -3 -6
8 -3 18 -10 21 -15 8 -13 18 47 16 97 l-2 40 -90 1 -90 0 83 -3z"/>
<path d="M11636 2202 c-3 -5 -3 -30 -1 -55 l5 -47 -121 1 c-67 0 -124 -2 -127
-5 -3 -3 18 -6 46 -6 31 0 52 -5 55 -12 4 -10 6 -10 6 0 1 9 29 12 105 12 74
0 106 -4 109 -12 3 -8 6 -6 6 5 1 13 -7 17 -32 17 -19 0 -34 5 -35 13 -1 6 -3
31 -5 54 -2 46 -3 48 -11 35z"/>
<path d="M12130 2195 c7 -8 17 -12 22 -9 6 4 5 10 -3 15 -22 14 -33 10 -19 -6z"/>
<path d="M12741 2194 c0 -11 3 -14 6 -6 3 7 2 16 -1 19 -3 4 -6 -2 -5 -13z"/>
<path d="M12533 2165 c0 -22 2 -30 4 -17 2 12 2 30 0 40 -3 9 -5 -1 -4 -23z"/>
<path d="M6398 2182 c-137 -1 -248 -6 -248 -10 0 -4 115 -7 255 -7 222 0 279
4 248 17 -5 2 -119 2 -255 0z"/>
<path d="M5180 2173 c0 -5 151 -8 335 -8 184 0 335 3 335 8 0 4 -151 7 -335 7
-184 0 -335 -3 -335 -7z"/>
<path d="M12739 2168 c-6 -22 -8 -88 -2 -91 4 -3 8 17 8 44 1 40 -2 60 -6 47z"/>
<path d="M10330 2143 c0 -13 5 -23 10 -23 13 0 13 11 0 30 -8 12 -10 11 -10
-7z"/>
<path d="M9310 2140 c0 -5 5 -10 11 -10 5 0 7 5 4 10 -3 6 -8 10 -11 10 -2 0
-4 -4 -4 -10z"/>
<path d="M11180 2140 c0 -5 5 -10 11 -10 5 0 7 5 4 10 -3 6 -8 10 -11 10 -2 0
-4 -4 -4 -10z"/>
<path d="M582 2020 c-83 -98 -101 -130 -72 -130 5 0 7 6 4 14 -4 11 140 197
171 218 6 5 7 8 0 8 -6 0 -52 -50 -103 -110z"/>
<path d="M698 2102 c-15 -13 -28 -30 -28 -38 0 -7 -26 -44 -58 -81 -60 -70
-77 -93 -68 -93 2 0 46 49 97 110 l92 110 276 2 276 3 -280 5 -279 5 -28 -23z"/>
<path d="M1300 2119 c0 -5 28 -9 62 -9 34 0 59 2 57 4 -9 8 -119 13 -119 5z"/>
<path d="M2080 2119 l-75 -5 72 -2 c59 -2 72 -5 76 -19 4 -17 5 -17 6 0 1 16
26 17 375 17 206 0 377 3 379 8 6 8 -721 10 -833 1z"/>
<path d="M2999 2117 c7 -7 14 -8 21 -1 6 6 2 10 -12 11 -16 2 -18 -1 -9 -10z"/>
<path d="M3055 2080 c-22 -28 -45 -48 -52 -46 -7 3 -10 -1 -7 -8 8 -22 -24
-38 -79 -41 l-52 -1 -6 40 -6 41 -1 -47 -2 -48 63 0 64 0 52 60 c29 33 58 57
63 53 7 -3 8 -1 4 6 -4 6 -2 18 4 26 7 8 8 15 4 15 -5 0 -27 -23 -49 -50z"/>
<path d="M5160 2114 c0 -7 18 -8 56 -3 76 10 78 17 4 15 -35 -1 -60 -5 -60
-12z"/>
<path d="M5630 2120 l-215 -6 218 -2 c139 -1 217 2 217 8 0 6 -1 9 -2 8 -2 -1
-100 -5 -218 -8z"/>
<path d="M6150 2118 c0 -5 80 -7 178 -6 178 2 157 6 -61 10 -64 2 -117 0 -117
-4z"/>
<path d="M6593 2122 c-29 -2 -53 -6 -53 -10 0 -4 127 -7 283 -8 222 0 235 0
63 3 -121 2 -224 7 -230 11 -6 4 -35 6 -63 4z"/>
<path d="M11212 2110 c0 -14 2 -19 5 -12 2 6 2 18 0 25 -3 6 -5 1 -5 -13z"/>
<path d="M2943 2113 c9 -2 23 -2 30 0 6 3 -1 5 -18 5 -16 0 -22 -2 -12 -5z"/>
<path d="M5290 2111 c0 -4 11 -6 25 -4 l24 5 3 -103 3 -104 5 108 5 107 -32 0
c-18 0 -33 -4 -33 -9z"/>
<path d="M7942 2103 c-7 -7 -11 -21 -9 -31 4 -14 5 -13 6 3 1 17 3 18 11 5 8
-13 10 -12 10 3 0 10 5 15 10 12 6 -3 10 -2 10 3 0 17 -25 20 -38 5z"/>
<path d="M12480 2113 c0 -5 5 -15 10 -23 8 -12 10 -11 10 8 0 12 -4 22 -10 22
-5 0 -10 -3 -10 -7z"/>
<path d="M8014 2101 c5 -8 56 -3 56 5 0 2 -14 4 -31 4 -16 0 -28 -4 -25 -9z"/>
<path d="M8843 2103 c15 -2 39 -2 55 0 15 2 2 4 -28 4 -30 0 -43 -2 -27 -4z"/>
<path d="M9830 2073 c-3 -23 -2 -39 3 -34 5 5 7 24 5 42 -3 33 -4 33 -8 -8z"/>
<path d="M9860 2071 c0 -22 -4 -42 -9 -45 -5 -3 -7 -16 -3 -28 5 -21 6 -21 13
-2 4 10 8 38 8 62 l1 42 460 0 460 0 0 -42 c0 -24 7 -52 15 -62 14 -19 15 -19
15 8 0 15 -4 25 -10 21 -6 -4 -10 12 -10 39 l0 46 -470 0 -470 0 0 -39z"/>
<path d="M11749 2063 c-1 -27 -1 -57 0 -68 0 -11 -8 0 -18 25 -11 25 -20 37
-20 26 -1 -16 -3 -17 -18 -5 -18 14 -4 -6 40 -55 13 -15 17 -41 19 -115 l2
-96 3 90 c3 55 8 92 16 97 9 6 9 8 0 8 -9 0 -12 20 -10 70 1 39 -1 70 -5 70
-5 0 -9 -21 -9 -47z"/>
<path d="M11240 2090 c0 -5 7 -7 15 -4 8 4 15 8 15 10 0 2 -7 4 -15 4 -8 0
-15 -4 -15 -10z"/>
<path d="M12171 2081 c-8 -5 -15 -19 -16 -30 -2 -28 13 -27 17 2 2 18 9 22 33
20 25 -2 27 -1 10 7 -26 11 -27 11 -44 1z"/>
<path d="M6635 2070 c4 -6 11 -8 16 -5 14 9 11 15 -7 15 -8 0 -12 -5 -9 -10z"/>
<path d="M11650 2071 c0 -6 4 -13 10 -16 6 -3 7 1 4 9 -7 18 -14 21 -14 7z"/>
<path d="M12265 2071 c30 -8 101 -45 120 -62 5 -5 17 -9 27 -9 10 0 18 -4 18
-9 0 -5 8 -12 17 -15 15 -6 15 -4 -2 14 -10 11 -26 20 -35 20 -9 0 -20 4 -25
9 -23 22 -106 61 -127 60 -19 -1 -18 -2 7 -8z"/>
<path d="M2810 2040 c0 -16 2 -30 4 -30 2 0 6 14 8 30 3 17 1 30 -4 30 -4 0
-8 -13 -8 -30z"/>
<path d="M11097 2050 c-3 -11 -1 -23 4 -26 5 -3 9 6 9 20 0 31 -6 34 -13 6z"/>
<path d="M5722 2040 c0 -14 2 -19 5 -12 2 6 2 18 0 25 -3 6 -5 1 -5 -13z"/>
<path d="M5760 2046 c0 -8 -5 -16 -11 -18 -8 -3 -7 -7 2 -15 11 -9 14 -5 16
18 1 16 0 29 -2 29 -3 0 -5 -6 -5 -14z"/>
<path d="M5912 2030 c0 -19 2 -27 5 -17 2 9 2 25 0 35 -3 9 -5 1 -5 -18z"/>
<path d="M7130 2048 c0 -9 -6 -18 -12 -20 -10 -4 -10 -10 -1 -29 l12 -24 0 27
c1 14 5 28 11 30 6 2 6 8 0 18 -8 13 -10 13 -10 -2z"/>
<path d="M6645 2040 c3 -5 8 -10 11 -10 2 0 4 5 4 10 0 6 -5 10 -11 10 -5 0
-7 -4 -4 -10z"/>
<path d="M11240 2030 c0 -13 -7 -20 -20 -20 -11 0 -20 -4 -20 -9 0 -5 8 -8 18
-7 15 1 17 -11 19 -102 1 -57 4 -106 7 -109 3 -4 6 55 6 130 0 76 -2 137 -5
137 -3 0 -5 -9 -5 -20z"/>
<path d="M12770 2035 c7 -8 18 -15 25 -15 8 0 16 -6 18 -12 4 -10 6 -10 6 0 1
8 -8 16 -19 19 -11 3 -20 9 -20 14 0 5 -5 9 -11 9 -8 0 -8 -5 1 -15z"/>
<path d="M5984 2029 c-3 -6 2 -18 12 -27 17 -16 17 -16 5 0 -7 9 -10 22 -6 28
3 5 4 10 1 10 -3 0 -8 -5 -12 -11z"/>
<path d="M6022 2020 c0 -14 2 -19 5 -12 2 6 2 18 0 25 -3 6 -5 1 -5 -13z"/>
<path d="M6177 2019 c4 -13 8 -18 11 -10 2 7 -1 18 -6 23 -8 8 -9 4 -5 -13z"/>
<path d="M7841 2024 c0 -11 3 -14 6 -6 3 7 2 16 -1 19 -3 4 -6 -2 -5 -13z"/>
<path d="M9680 2025 c0 -8 5 -15 10 -15 6 0 10 7 10 15 0 8 -4 15 -10 15 -5 0
-10 -7 -10 -15z"/>
<path d="M11162 2015 c0 -16 2 -22 5 -12 2 9 2 23 0 30 -3 6 -5 -1 -5 -18z"/>
<path d="M5793 2016 c1 -11 9 -21 17 -23 10 -3 11 -2 4 4 -6 4 -14 15 -17 23
-5 11 -6 9 -4 -4z"/>
<path d="M8957 2023 c-2 -5 -1 -17 3 -27 6 -19 7 -19 12 2 6 21 -6 40 -15 25z"/>
<path d="M5876 2008 c5 -8 1 -9 -12 -4 -14 5 -16 4 -7 -5 6 -6 16 -8 22 -5 14
9 14 26 0 26 -5 0 -7 -5 -3 -12z"/>
<path d="M6079 2003 c-13 -16 -12 -17 4 -4 16 13 21 21 13 21 -2 0 -10 -8 -17
-17z"/>
<path d="M7398 2013 c7 -3 16 -2 19 1 4 3 -2 6 -13 5 -11 0 -14 -3 -6 -6z"/>
<path d="M7996 2012 c-2 -4 -1 -14 3 -21 6 -10 10 -9 14 3 6 16 -8 32 -17 18z"/>
<path d="M12155 2010 c-3 -5 -3 -15 0 -20 4 -6 1 -19 -7 -28 -11 -15 -11 -16
3 -4 9 7 17 24 17 37 0 27 -3 31 -13 15z"/>
<path d="M5162 1990 c0 -14 2 -19 5 -12 2 6 2 18 0 25 -3 6 -5 1 -5 -13z"/>
<path d="M9392 1990 c0 -14 2 -19 5 -12 2 6 2 18 0 25 -3 6 -5 1 -5 -13z"/>
<path d="M2812 1970 c0 -14 2 -19 5 -12 2 6 2 18 0 25 -3 6 -5 1 -5 -13z"/>
<path d="M4284 1966 c7 -27 6 -27 -19 -10 -17 11 -25 12 -25 4 0 -6 14 -17 31
-23 22 -9 29 -17 25 -31 -3 -13 -2 -16 6 -8 13 13 2 78 -14 88 -7 5 -9 -1 -4
-20z"/>
<path d="M5240 1970 c-9 -6 -10 -10 -3 -10 6 0 15 5 18 10 8 12 4 12 -15 0z"/>
<path d="M6632 1958 c2 -13 8 -23 13 -23 6 0 11 10 13 23 2 15 -2 22 -13 22
-11 0 -15 -7 -13 -22z"/>
<path d="M11210 1970 c0 -5 5 -10 11 -10 5 0 7 5 4 10 -3 6 -8 10 -11 10 -2 0
-4 -4 -4 -10z"/>
<path d="M11798 1958 c5 -5 16 -8 23 -6 8 3 3 7 -10 11 -17 4 -21 3 -13 -5z"/>
<path d="M9394 1870 c0 -52 1 -74 3 -47 2 26 2 68 0 95 -2 26 -3 4 -3 -48z"/>
<path d="M11161 1944 c0 -11 3 -14 6 -6 3 7 2 16 -1 19 -3 4 -6 -2 -5 -13z"/>
<path d="M11854 1952 c-7 -4 16 -8 50 -8 45 -1 53 0 31 6 -41 10 -68 11 -81 2z"/>
<path d="M5160 1931 c0 -25 6 -27 13 -6 4 8 2 17 -3 20 -6 4 -10 -3 -10 -14z"/>
<path d="M12048 1943 c12 -2 30 -2 40 0 9 3 -1 5 -23 4 -22 0 -30 -2 -17 -4z"/>
<path d="M4170 1936 c0 -12 40 -66 49 -66 4 0 15 6 25 13 15 11 17 17 7 35 -7
13 -21 22 -34 21 l-22 0 23 -9 c23 -10 31 -40 10 -40 -7 0 -23 12 -35 27 -13
14 -23 23 -23 19z"/>
<path d="M5286 1925 c4 -8 8 -15 10 -15 2 0 4 7 4 15 0 8 -4 15 -10 15 -5 0
-7 -7 -4 -15z"/>
<path d="M2812 1910 c0 -14 2 -19 5 -12 2 6 2 18 0 25 -3 6 -5 1 -5 -13z"/>
<path d="M11703 1912 c-6 -5 -4 -13 6 -22 9 -8 15 -13 14 -11 -2 2 2 10 7 16
12 15 -10 28 -27 17z"/>
<path d="M11195 1900 c3 -5 8 -10 11 -10 2 0 4 5 4 10 0 6 -5 10 -11 10 -5 0
-7 -4 -4 -10z"/>
<path d="M11162 1880 c0 -14 2 -19 5 -12 2 6 2 18 0 25 -3 6 -5 1 -5 -13z"/>
<path d="M4110 1882 c0 -6 11 -23 24 -39 21 -24 26 -26 40 -14 25 21 16 55
-14 60 l-25 3 24 -19 c16 -13 21 -24 16 -33 -6 -9 -15 -4 -36 20 -16 18 -29
28 -29 22z"/>
<path d="M9421 1874 c0 -11 3 -14 6 -6 3 7 2 16 -1 19 -3 4 -6 -2 -5 -13z"/>
<path d="M12600 1883 c0 -14 46 -36 62 -30 8 3 6 6 -6 6 -11 1 -28 8 -38 18
-10 9 -18 12 -18 6z"/>
<path d="M5161 1863 c-1 -20 3 -23 37 -21 36 1 36 1 5 5 -19 3 -34 11 -36 21
-3 12 -5 10 -6 -5z"/>
<path d="M5250 1865 c-3 -11 -3 -222 0 -470 l5 -450 3 447 2 447 23 4 c22 4
22 4 0 6 -12 0 -23 9 -25 19 -3 15 -4 14 -8 -3z"/>
<path d="M5990 1580 l0 -300 -145 0 -145 0 0 169 0 170 33 4 c31 4 31 4 -5 5
l-38 2 0 -180 0 -180 98 -1 c53 0 121 0 149 1 l53 1 3 -188 c1 -103 3 34 5
305 1 270 0 492 -3 492 -3 0 -5 -135 -5 -300z"/>
<path d="M6605 1390 c0 -272 1 -384 2 -247 2 136 2 358 0 495 -1 136 -2 24 -2
-248z"/>
<path d="M6635 1870 c-3 -5 1 -10 10 -10 9 0 13 5 10 10 -3 6 -8 10 -10 10 -2
0 -7 -4 -10 -10z"/>
<path d="M12700 1850 c0 -5 -8 -10 -17 -11 -14 0 -15 -2 -3 -6 8 -3 18 -11 22
-17 4 -6 8 1 8 17 0 15 -2 27 -5 27 -3 0 -5 -4 -5 -10z"/>
<path d="M6052 1820 c0 -19 2 -27 5 -17 2 9 2 25 0 35 -3 9 -5 1 -5 -18z"/>
<path d="M4077 1833 c-10 -9 -8 -53 2 -53 4 0 6 12 3 26 -4 21 -1 25 14 22 12
-2 19 -12 18 -26 0 -14 3 -19 9 -13 14 14 -2 51 -22 51 -10 0 -21 -3 -24 -7z"/>
<path d="M11162 1820 c0 -14 2 -19 5 -12 2 6 2 18 0 25 -3 6 -5 1 -5 -13z"/>
<path d="M11712 1815 c0 -16 2 -22 5 -12 2 9 2 23 0 30 -3 6 -5 -1 -5 -18z"/>
<path d="M5282 1810 c0 -14 2 -19 5 -12 2 6 2 18 0 25 -3 6 -5 1 -5 -13z"/>
<path d="M12725 1810 c3 -5 16 -15 28 -21 l22 -11 -22 21 c-23 22 -39 28 -28
11z"/>
<path d="M7552 1790 c0 -14 2 -19 5 -12 2 6 2 18 0 25 -3 6 -5 1 -5 -13z"/>
<path d="M3992 1768 c25 -37 45 -45 63 -25 8 9 10 12 3 7 -19 -16 -34 -12 -48
15 -7 14 -18 25 -23 25 -5 0 -3 -10 5 -22z"/>
<path d="M5283 1700 c0 -41 2 -58 4 -37 2 20 2 54 0 75 -2 20 -4 3 -4 -38z"/>
<path d="M6643 1751 c-7 -10 -9 -22 -6 -25 12 -12 19 -6 21 19 2 30 0 31 -15
6z"/>
<path d="M6790 1755 c0 -9 12 -20 26 -25 29 -12 22 -34 -9 -26 -14 3 -17 2
-10 -5 15 -15 48 -7 48 11 0 8 -10 19 -23 25 -12 5 -20 16 -17 22 2 7 0 13 -5
13 -6 0 -10 -7 -10 -15z"/>
<path d="M6825 1760 c3 -5 11 -10 16 -10 6 0 7 5 4 10 -3 6 -11 10 -16 10 -6
0 -7 -4 -4 -10z"/>
<path d="M6868 1755 c-6 -7 3 -65 11 -65 7 0 7 58 -1 65 -2 3 -7 3 -10 0z"/>
<path d="M9392 1340 c-1 -234 -5 -436 -7 -450 -5 -22 -4 -22 4 -5 5 11 10 50
10 88 1 64 15 91 24 45 4 -23 4 -23 6 -1 0 12 9 24 19 26 9 3 2 5 -15 6 l-33
1 -3 358 -2 357 -3 -425z"/>
<path d="M11161 1744 c0 -11 3 -14 6 -6 3 7 2 16 -1 19 -3 4 -6 -2 -5 -13z"/>
<path d="M11240 1695 c-3 -38 -3 -198 0 -355 l5 -285 5 240 c6 267 -1 527 -10
400z"/>
<path d="M11713 1710 c0 -30 2 -43 4 -27 2 15 2 39 0 55 -2 15 -4 2 -4 -28z"/>
<path d="M11752 1668 c-2 -96 -2 -98 21 -97 16 1 17 3 5 6 -14 4 -18 20 -21
96 l-3 92 -2 -97z"/>
<path d="M6914 1735 c-15 -37 21 -60 46 -29 11 12 10 18 -5 32 -18 16 -18 16
-6 0 15 -20 7 -38 -16 -38 -11 0 -14 7 -11 25 6 28 1 33 -8 10z"/>
<path d="M6991 1718 c2 -28 2 -29 6 -8 3 14 10 28 17 32 7 5 5 8 -6 8 -14 0
-18 -8 -17 -32z"/>
<path d="M7050 1742 c20 -10 25 -42 6 -42 -8 0 -17 6 -19 13 -3 7 -6 5 -6 -5
-1 -13 7 -18 25 -18 22 0 25 4 22 27 -2 19 -9 29 -23 30 -15 2 -16 1 -5 -5z"/>
<path d="M7107 1743 c-13 -13 -7 -44 11 -50 9 -4 20 -11 24 -17 4 -6 7 9 6 34
-1 29 -2 35 -5 18 -2 -16 -11 -28 -19 -28 -17 0 -19 36 -1 43 6 3 7 6 1 6 -6
1 -14 -2 -17 -6z"/>
<path d="M7175 1729 c-8 -26 6 -43 31 -36 16 4 16 5 -3 6 -16 1 -20 6 -16 21
6 23 19 26 26 8 3 -8 6 -6 6 5 1 25 -36 22 -44 -4z"/>
<path d="M8184 1726 c-11 -30 1 -61 25 -64 13 -2 28 1 34 7 7 7 1 10 -19 8
-25 -2 -29 2 -32 27 -3 27 -2 29 28 23 19 -4 29 -3 25 3 -9 15 -55 12 -61 -4z"/>
<path d="M8273 1700 c0 -25 2 -35 4 -22 2 12 2 32 0 45 -2 12 -4 2 -4 -23z"/>
<path d="M3921 1706 c-14 -17 1 -56 21 -56 6 0 3 9 -7 20 -14 15 -16 23 -7 32
8 8 16 5 31 -13 11 -13 20 -19 21 -13 0 11 -31 44 -42 44 -3 0 -11 -6 -17 -14z"/>
<path d="M8313 1713 c14 -3 18 -12 14 -29 -3 -16 0 -24 10 -24 10 0 13 9 11
28 -2 21 -9 27 -28 29 -16 1 -19 0 -7 -4z"/>
<path d="M8370 1706 c0 -7 10 -17 23 -20 21 -7 21 -7 2 -16 -19 -9 -19 -10 -1
-7 28 3 31 24 4 33 -22 7 -22 7 -3 15 19 7 19 8 -2 8 -13 1 -23 -5 -23 -13z"/>
<path d="M8437 1714 c-8 -9 1 -24 14 -24 6 0 8 4 4 9 -3 5 3 12 12 14 15 4 14
5 -3 6 -11 0 -24 -2 -27 -5z"/>
<path d="M8500 1688 c0 -15 5 -28 10 -28 6 0 10 11 10 24 0 13 6 26 13 29 6 3
2 4 -10 4 -18 -1 -23 -7 -23 -29z"/>
<path d="M8554 1705 c-9 -23 3 -45 26 -45 11 0 20 4 20 9 0 5 -9 7 -20 4 -15
-4 -20 0 -20 16 0 23 25 29 33 9 3 -8 6 -6 6 5 1 21 -37 23 -45 2z"/>
<path d="M8630 1690 c0 -27 3 -31 23 -28 16 2 22 10 22 28 0 18 -6 26 -22 28
-20 3 -23 -1 -23 -28z m40 0 c0 -11 -7 -20 -15 -20 -8 0 -15 9 -15 20 0 11 7
20 15 20 8 0 15 -9 15 -20z"/>
<path d="M8701 1688 c2 -31 2 -31 6 -5 2 15 10 27 18 27 8 0 16 -12 18 -27 l4
-28 2 28 c0 16 7 27 15 27 8 0 17 -12 19 -27 4 -26 4 -26 6 5 1 32 0 32 -44
32 -44 0 -45 0 -44 -32z"/>
<path d="M5541 1694 c0 -11 3 -14 6 -6 3 7 2 16 -1 19 -3 4 -6 -2 -5 -13z"/>
<path d="M6052 1685 c0 -16 2 -22 5 -12 2 9 2 23 0 30 -3 6 -5 -1 -5 -18z"/>
<path d="M10097 1693 c-12 -11 -8 -50 7 -62 14 -12 46 -5 46 10 0 6 -9 5 -20
-1 -16 -9 -22 -8 -26 5 -11 27 4 47 28 40 18 -5 20 -4 8 4 -17 12 -34 14 -43
4z"/>
<path d="M8301 1674 c0 -11 3 -14 6 -6 3 7 2 16 -1 19 -3 4 -6 -2 -5 -13z"/>
<path d="M8470 1681 c0 -5 -8 -12 -17 -14 -14 -4 -13 -5 4 -6 24 -1 39 14 23
24 -5 3 -10 2 -10 -4z"/>
<path d="M3880 1675 c0 -5 9 -21 20 -35 11 -14 20 -20 20 -15 0 6 -9 21 -20
35 -11 14 -20 21 -20 15z"/>
<path d="M6640 1660 c0 -5 5 -10 11 -10 5 0 7 5 4 10 -3 6 -8 10 -11 10 -2 0
-4 -4 -4 -10z"/>
<path d="M10413 1651 c1 -14 9 -26 17 -28 10 -3 11 -2 4 4 -7 4 -14 17 -17 28
-5 16 -5 15 -4 -4z"/>
<path d="M10475 1659 c-4 -6 -5 -12 -2 -15 2 -3 7 2 10 11 7 17 1 20 -8 4z"/>
<path d="M10512 1650 c0 -14 2 -19 5 -12 2 6 2 18 0 25 -3 6 -5 1 -5 -13z"/>
<path d="M10552 1650 c0 -14 2 -19 5 -12 2 6 2 18 0 25 -3 6 -5 1 -5 -13z"/>
<path d="M10581 1648 c1 -17 2 -19 6 -5 2 9 8 17 13 17 5 0 11 -8 13 -17 4
-14 5 -12 6 5 1 16 -5 22 -19 22 -14 0 -20 -6 -19 -22z"/>
<path d="M5540 1646 c0 -8 4 -17 9 -20 5 -4 7 3 4 14 -6 23 -13 26 -13 6z"/>
<path d="M10451 1644 c0 -11 3 -14 6 -6 3 7 2 16 -1 19 -3 4 -6 -2 -5 -13z"/>
<path d="M3848 1640 c12 -5 22 -14 22 -20 0 -5 5 -10 12 -10 6 0 3 9 -7 20
-10 11 -25 20 -34 19 -10 0 -8 -3 7 -9z"/>
<path d="M10285 1640 c6 -10 4 -12 -11 -6 -15 6 -17 5 -6 -5 9 -9 15 -10 23
-2 8 8 7 13 -2 18 -8 6 -10 4 -4 -5z"/>
<path d="M6646 1623 c-6 -14 -5 -15 5 -6 7 7 10 15 7 18 -3 3 -9 -2 -12 -12z"/>
<path d="M7582 1620 c0 -14 2 -19 5 -12 2 6 2 18 0 25 -3 6 -5 1 -5 -13z"/>
<path d="M11162 1620 c0 -14 2 -19 5 -12 2 6 2 18 0 25 -3 6 -5 1 -5 -13z"/>
<path d="M3766 1622 c-3 -6 -1 -23 4 -37 l11 -28 -27 18 c-39 25 -47 5 -13
-35 16 -19 29 -29 29 -23 0 6 -7 16 -15 23 -27 23 -16 32 13 10 24 -20 27 -20
30 -5 2 9 -1 22 -7 28 -6 6 -11 16 -11 22 0 5 9 -1 20 -15 10 -14 22 -21 26
-17 5 4 -6 21 -23 38 -18 18 -33 27 -37 21z"/>
<path d="M5583 1623 c9 -2 25 -2 35 0 9 3 1 5 -18 5 -19 0 -27 -2 -17 -5z"/>
<path d="M5778 1623 c7 -3 16 -2 19 1 4 3 -2 6 -13 5 -11 0 -14 -3 -6 -6z"/>
<path d="M10328 1623 c7 -3 16 -2 19 1 4 3 -2 6 -13 5 -11 0 -14 -3 -6 -6z"/>
<path d="M11714 1530 c0 -58 1 -81 3 -52 2 28 2 76 0 105 -2 28 -3 5 -3 -53z"/>
<path d="M3840 1600 c0 -11 4 -20 9 -20 5 0 7 9 4 20 -3 11 -7 20 -9 20 -2 0
-4 -9 -4 -20z"/>
<path d="M5283 1570 c0 -25 2 -35 4 -22 2 12 2 32 0 45 -2 12 -4 2 -4 -23z"/>
<path d="M6053 1565 c0 -22 2 -30 4 -17 2 12 2 30 0 40 -3 9 -5 -1 -4 -23z"/>
<path d="M7047 1569 c4 -13 8 -18 11 -10 2 7 -1 18 -6 23 -8 8 -9 4 -5 -13z"/>
<path d="M11162 1560 c0 -14 2 -19 5 -12 2 6 2 18 0 25 -3 6 -5 1 -5 -13z"/>
<path d="M11828 1573 c12 -2 30 -2 40 0 9 3 -1 5 -23 4 -22 0 -30 -2 -17 -4z"/>
<path d="M11938 1573 c18 -2 45 -2 60 0 15 2 0 4 -33 4 -33 0 -45 -2 -27 -4z"/>
<path d="M12178 1573 c45 -2 119 -2 165 0 45 1 8 3 -83 3 -91 0 -128 -2 -82
-3z"/>
<path d="M12528 1573 c23 -2 59 -2 80 0 20 2 1 4 -43 4 -44 0 -61 -2 -37 -4z"/>
<path d="M8470 1555 c0 -8 2 -15 4 -15 2 0 6 7 10 15 3 8 1 15 -4 15 -6 0 -10
-7 -10 -15z"/>
<path d="M6637 1540 c-3 -12 0 -20 7 -20 6 0 12 9 13 20 1 11 -2 20 -6 20 -5
0 -11 -9 -14 -20z"/>
<path d="M7138 1543 c7 -3 16 -2 19 1 4 3 -2 6 -13 5 -11 0 -14 -3 -6 -6z"/>
<path d="M8482 1524 c-7 -8 -8 -14 -3 -14 10 0 25 19 20 25 -2 1 -10 -3 -17
-11z"/>
<path d="M10255 1520 c-3 -5 -1 -10 4 -10 6 0 11 5 11 10 0 6 -2 10 -4 10 -3
0 -8 -4 -11 -10z"/>
<path d="M5281 1504 c0 -11 3 -14 6 -6 3 7 2 16 -1 19 -3 4 -6 -2 -5 -13z"/>
<path d="M5593 1503 c9 -2 23 -2 30 0 6 3 -1 5 -18 5 -16 0 -22 -2 -12 -5z"/>
<path d="M11161 1494 c0 -11 3 -14 6 -6 3 7 2 16 -1 19 -3 4 -6 -2 -5 -13z"/>
<path d="M9423 1460 c0 -25 2 -35 4 -22 2 12 2 32 0 45 -2 12 -4 2 -4 -23z"/>
<path d="M9488 1493 c7 -3 16 -2 19 1 4 3 -2 6 -13 5 -11 0 -14 -3 -6 -6z"/>
<path d="M11191 1474 c0 -11 3 -14 6 -6 3 7 2 16 -1 19 -3 4 -6 -2 -5 -13z"/>
<path d="M5283 1435 c0 -27 2 -38 4 -22 2 15 2 37 0 50 -2 12 -4 0 -4 -28z"/>
<path d="M1442 1433 c1 -37 1 -37 5 -5 3 24 9 32 24 32 21 0 26 -16 8 -22 -9
-3 -9 -10 0 -27 7 -12 15 -20 18 -17 3 3 0 12 -7 21 -8 10 -9 15 -1 15 6 0 11
9 11 20 0 16 -7 20 -30 20 -28 0 -30 -2 -28 -37z"/>
<path d="M1838 1463 c-2 -5 -1 -24 3 -43 l6 -35 2 43 c1 39 -3 52 -11 35z"/>
<path d="M1887 1464 c-10 -10 -9 -62 2 -68 5 -3 8 8 7 25 0 19 5 34 13 37 10
3 12 -4 9 -32 -2 -20 0 -36 5 -36 16 0 3 75 -13 78 -9 1 -19 0 -23 -4z"/>
<path d="M1970 1460 c-9 -6 -10 -10 -3 -10 6 0 14 -15 16 -32 3 -29 4 -27 5
10 1 23 1 42 0 42 -2 0 -10 -5 -18 -10z"/>
<path d="M6052 1440 c0 -19 2 -27 5 -17 2 9 2 25 0 35 -3 9 -5 1 -5 -18z"/>
<path d="M6638 1453 c7 -3 16 -2 19 1 4 3 -2 6 -13 5 -11 0 -14 -3 -6 -6z"/>
<path d="M1524 1435 c-9 -23 3 -45 26 -45 11 0 20 4 20 9 0 5 -9 7 -20 4 -16
-4 -20 0 -20 17 0 17 4 21 20 17 11 -3 20 -1 20 4 0 15 -40 10 -46 -6z"/>
<path d="M1596 1433 c-8 -21 17 -48 38 -40 9 4 16 18 16 32 0 20 -5 25 -24 25
-13 0 -27 -8 -30 -17z m44 -13 c0 -11 -7 -20 -15 -20 -8 0 -15 9 -15 20 0 11
7 20 15 20 8 0 15 -9 15 -20z"/>
<path d="M1671 1423 c2 -24 2 -24 6 -5 5 27 23 29 23 3 0 -11 5 -23 10 -26 6
-4 10 5 10 19 0 14 5 26 10 26 6 0 10 -9 10 -20 0 -11 5 -20 11 -20 6 0 9 10
7 23 -2 18 -10 23 -45 25 -41 3 -43 2 -42 -25z"/>
<path d="M11156 1442 c-2 -4 -1 -14 5 -22 7 -12 9 -10 9 8 0 23 -5 28 -14 14z"/>
<path d="M6640 1420 c0 -5 5 -10 11 -10 5 0 7 5 4 10 -3 6 -8 10 -11 10 -2 0
-4 -4 -4 -10z"/>
<path d="M11192 1400 c0 -14 2 -19 5 -12 2 6 2 18 0 25 -3 6 -5 1 -5 -13z"/>
<path d="M11713 1380 c0 -25 2 -35 4 -22 2 12 2 32 0 45 -2 12 -4 2 -4 -23z"/>
<path d="M593 1340 c0 -41 2 -58 4 -37 2 20 2 54 0 75 -2 20 -4 3 -4 -38z"/>
<path d="M7671 1382 c-6 -12 -5 -23 5 -37 13 -17 14 -16 14 18 0 41 -5 46 -19
19z"/>
<path d="M5593 1373 c9 -2 23 -2 30 0 6 3 -1 5 -18 5 -16 0 -22 -2 -12 -5z"/>
<path d="M11161 1364 c0 -11 3 -14 6 -6 3 7 2 16 -1 19 -3 4 -6 -2 -5 -13z"/>
<path d="M6636 1353 c-10 -11 -7 -31 7 -36 7 -3 13 3 14 14 2 20 -10 33 -21
22z"/>
<path d="M7573 1325 c0 -22 2 -30 4 -17 2 12 2 30 0 40 -3 9 -5 -1 -4 -23z"/>
<path d="M9421 1344 c0 -11 3 -14 6 -6 3 7 2 16 -1 19 -3 4 -6 -2 -5 -13z"/>
<path d="M5283 1310 c0 -25 2 -35 4 -22 2 12 2 32 0 45 -2 12 -4 2 -4 -23z"/>
<path d="M6053 1315 c0 -22 2 -30 4 -17 2 12 2 30 0 40 -3 9 -5 -1 -4 -23z"/>
<path d="M11713 1290 c0 -25 2 -35 4 -22 2 12 2 32 0 45 -2 12 -4 2 -4 -23z"/>
<path d="M11162 1300 c0 -14 2 -19 5 -12 2 6 2 18 0 25 -3 6 -5 1 -5 -13z"/>
<path d="M594 1165 c0 -55 1 -76 3 -47 2 29 2 74 0 100 -2 26 -3 2 -3 -53z"/>
<path d="M5283 1200 c0 -36 2 -50 4 -32 2 17 2 47 0 65 -2 17 -4 3 -4 -33z"/>
<path d="M7672 1247 c-7 -8 -6 -18 4 -31 13 -19 14 -18 14 12 0 35 -3 38 -18
19z"/>
<path d="M11161 1234 c0 -11 3 -14 6 -6 3 7 2 16 -1 19 -3 4 -6 -2 -5 -13z"/>
<path d="M11714 1150 c0 -52 1 -74 3 -47 2 26 2 68 0 95 -2 26 -3 4 -3 -48z"/>
<path d="M6053 1185 c0 -22 2 -30 4 -17 2 12 2 30 0 40 -3 9 -5 -1 -4 -23z"/>
<path d="M6640 1210 c0 -5 5 -10 10 -10 6 0 10 5 10 10 0 6 -4 10 -10 10 -5 0
-10 -4 -10 -10z"/>
<path d="M5821 1194 c0 -11 3 -14 6 -6 3 7 2 16 -1 19 -3 4 -6 -2 -5 -13z"/>
<path d="M11162 1170 c0 -14 2 -19 5 -12 2 6 2 18 0 25 -3 6 -5 1 -5 -13z"/>
<path d="M6644 1125 c0 -14 4 -25 9 -25 10 0 9 38 -2 44 -5 3 -8 -5 -7 -19z"/>
<path d="M7571 1088 c-1 -16 4 -28 9 -28 12 0 12 8 0 35 -8 18 -9 17 -9 -7z"/>
<path d="M6053 1030 c0 -41 2 -58 4 -37 2 20 2 54 0 75 -2 20 -4 3 -4 -38z"/>
<path d="M5283 1045 c0 -27 2 -38 4 -22 2 15 2 37 0 50 -2 12 -4 0 -4 -28z"/>
<path d="M6644 1071 c3 -5 15 -7 26 -4 28 7 25 13 -6 13 -14 0 -23 -4 -20 -9z"/>
<path d="M11152 1051 c-6 -4 -5 -11 4 -19 10 -9 14 -9 14 -1 0 6 7 9 15 5 8
-3 15 -2 15 3 0 11 -35 20 -48 12z"/>
<path d="M6630 1006 c0 -2 7 -6 15 -10 8 -3 15 -1 15 4 0 6 -7 10 -15 10 -8 0
-15 -2 -15 -4z"/>
<path d="M11161 974 c0 -11 3 -14 6 -6 3 7 2 16 -1 19 -3 4 -6 -2 -5 -13z"/>
<path d="M2811 934 c0 -11 3 -14 6 -6 3 7 2 16 -1 19 -3 4 -6 -2 -5 -13z"/>
<path d="M5301 934 c0 -11 3 -14 6 -6 3 7 2 16 -1 19 -3 4 -6 -2 -5 -13z"/>
<path d="M6635 940 c-8 -13 3 -50 16 -50 12 0 12 47 0 55 -5 3 -12 1 -16 -5z"/>
<path d="M11180 930 c0 -5 5 -10 10 -10 6 0 10 5 10 10 0 6 -4 10 -10 10 -5 0
-10 -4 -10 -10z"/>
<path d="M3790 900 c0 -5 5 -10 11 -10 5 0 7 5 4 10 -3 6 -8 10 -11 10 -2 0
-4 -4 -4 -10z"/>
<path d="M3930 901 c0 -6 4 -13 10 -16 6 -3 7 1 4 9 -7 18 -14 21 -14 7z"/>
<path d="M11644 899 c-9 -15 11 -32 32 -26 14 3 13 5 -6 6 -19 1 -22 4 -11 10
8 5 24 6 37 1 16 -7 24 -5 28 6 4 11 -4 14 -34 14 -21 0 -42 -5 -46 -11z"/>
<path d="M9011 884 c0 -11 3 -14 6 -6 3 7 2 16 -1 19 -3 4 -6 -2 -5 -13z"/>
<path d="M9931 884 c0 -11 3 -14 6 -6 3 7 2 16 -1 19 -3 4 -6 -2 -5 -13z"/>
<path d="M11197 888 c6 -11 51 -10 57 0 3 5 -10 8 -29 8 -18 -1 -31 -4 -28 -8z"/>
<path d="M1597 879 c7 -7 15 -10 18 -7 3 3 -2 9 -12 12 -14 6 -15 5 -6 -5z"/>
<path d="M2460 875 c-7 -9 -8 -15 -2 -15 5 0 12 7 16 15 3 8 4 15 2 15 -2 0
-9 -7 -16 -15z"/>
<path d="M2498 883 c7 -3 16 -2 19 1 4 3 -2 6 -13 5 -11 0 -14 -3 -6 -6z"/>
<path d="M7070 883 c0 -5 16 -8 35 -8 19 0 35 3 35 8 0 4 -16 7 -35 7 -19 0
-35 -3 -35 -7z"/>
<path d="M7990 882 c0 -4 16 -6 35 -4 19 2 35 6 35 8 0 2 -16 4 -35 4 -19 0
-35 -4 -35 -8z"/>
<path d="M8914 876 c-3 -8 -4 -25 -1 -38 3 -18 5 -16 6 9 1 28 5 32 34 36 l32
4 -33 1 c-20 1 -35 -3 -38 -12z"/>
<path d="M9831 863 c2 -23 2 -24 6 -5 3 17 11 22 33 22 16 0 31 -5 33 -10 3
-6 4 -5 3 2 -1 7 -19 14 -39 16 -35 3 -37 2 -36 -25z"/>
<path d="M10755 879 c-4 -6 -4 -13 -1 -16 3 -4 6 -1 6 6 0 9 11 12 34 9 19 -2
32 0 30 4 -8 12 -62 10 -69 -3z"/>
<path d="M6212 850 c0 -19 2 -27 5 -17 2 9 2 25 0 35 -3 9 -5 1 -5 -18z"/>
<path d="M6635 870 c-3 -5 1 -10 10 -10 9 0 13 5 10 10 -3 6 -8 10 -10 10 -2
0 -7 -4 -10 -10z"/>
<path d="M11162 850 c0 -14 2 -19 5 -12 2 6 2 18 0 25 -3 6 -5 1 -5 -13z"/>
<path d="M1498 853 c7 -3 16 -2 19 1 4 3 -2 6 -13 5 -11 0 -14 -3 -6 -6z"/>
<path d="M3300 856 c0 -2 14 -6 30 -8 17 -3 30 -1 30 4 0 4 -13 8 -30 8 -16 0
-30 -2 -30 -4z"/>
<path d="M3480 850 c0 -5 7 -7 15 -4 8 4 15 8 15 10 0 2 -7 4 -15 4 -8 0 -15
-4 -15 -10z"/>
<path d="M9393 853 c9 -2 25 -2 35 0 9 3 1 5 -18 5 -19 0 -27 -2 -17 -5z"/>
<path d="M3351 784 c0 -11 3 -14 6 -6 3 7 2 16 -1 19 -3 4 -6 -2 -5 -13z"/>
<path d="M11162 775 c0 -16 2 -22 5 -12 2 9 2 23 0 30 -3 6 -5 -1 -5 -18z"/>
<path d="M4060 511 c0 -6 4 -12 8 -15 5 -3 9 1 9 9 0 8 -4 15 -9 15 -4 0 -8
-4 -8 -9z"/>
<path d="M4290 488 c0 -21 2 -38 4 -38 9 0 12 50 5 62 -6 8 -9 -1 -9 -24z"/>
<path d="M4860 485 c0 -27 4 -35 18 -35 32 0 58 49 34 64 -4 2 -8 -7 -7 -22 0
-18 -6 -28 -19 -30 -16 -3 -18 1 -14 27 2 17 1 31 -4 31 -4 0 -8 -16 -8 -35z"/>
<path d="M5133 485 c0 -22 2 -30 4 -17 2 12 2 30 0 40 -3 9 -5 -1 -4 -23z"/>
<path d="M5252 488 c-2 -31 1 -38 17 -38 10 0 25 8 32 18 11 14 11 15 -1 5
-24 -22 -39 -15 -43 20 -4 31 -4 31 -5 -5z"/>
<path d="M4250 486 c0 -14 5 -28 10 -31 6 -4 10 7 10 24 0 17 -4 31 -10 31 -5
0 -10 -11 -10 -24z"/>
<path d="M4520 487 c0 -14 4 -28 8 -31 9 -5 8 41 -1 51 -4 3 -7 -5 -7 -20z"/>
<path d="M4163 484 c1 -13 -4 -18 -17 -17 -13 1 -15 -2 -7 -10 8 -8 16 -7 28
6 13 12 14 20 6 28 -8 8 -11 6 -10 -7z"/>
<path d="M4232 475 c0 -16 2 -22 5 -12 2 9 2 23 0 30 -3 6 -5 -1 -5 -18z"/>
<path d="M4327 479 c4 -13 8 -18 11 -10 2 7 -1 18 -6 23 -8 8 -9 4 -5 -13z"/>
<path d="M4391 478 c-1 -24 3 -28 27 -27 22 1 23 2 5 6 -13 2 -24 13 -26 26
-4 18 -5 17 -6 -5z"/>
<path d="M4462 475 c0 -16 2 -22 5 -12 2 9 2 23 0 30 -3 6 -5 -1 -5 -18z"/>
<path d="M4492 475 c0 -16 2 -22 5 -12 2 9 2 23 0 30 -3 6 -5 -1 -5 -18z"/>
<path d="M4551 473 c0 -16 3 -22 6 -13 3 8 10 21 16 28 7 8 5 12 -7 12 -11 0
-16 -8 -15 -27z"/>
<path d="M4714 489 c-10 -17 23 -46 37 -32 8 8 6 11 -7 10 -13 -1 -18 4 -16
16 3 19 -3 22 -14 6z"/>
<path d="M4781 478 c-1 -21 4 -28 17 -28 11 0 13 3 6 8 -7 4 -14 16 -17 27 -4
15 -5 14 -6 -7z"/>
<path d="M4805 490 c3 -5 8 -10 11 -10 2 0 4 5 4 10 0 6 -5 10 -11 10 -5 0 -7
-4 -4 -10z"/>
<path d="M5000 481 c0 -11 4 -22 9 -25 4 -3 6 6 3 19 -5 30 -12 33 -12 6z"/>
<path d="M5163 481 c1 -14 9 -26 17 -28 10 -3 11 -2 4 4 -7 4 -14 17 -17 28
-5 16 -5 15 -4 -4z"/>
<path d="M5185 490 c3 -5 8 -10 11 -10 2 0 4 5 4 10 0 6 -5 10 -11 10 -5 0 -7
-4 -4 -10z"/>
<path d="M5323 484 c-7 -20 11 -38 31 -31 17 7 21 32 7 41 -5 4 -7 -3 -4 -14
4 -14 0 -20 -12 -20 -12 0 -16 6 -12 20 6 24 -1 27 -10 4z"/>
<path d="M5385 489 c-4 -6 -5 -12 -2 -15 2 -3 7 2 10 11 7 17 1 20 -8 4z"/>
<path d="M5421 483 c-1 -12 -9 -24 -18 -26 -17 -4 -17 -5 0 -6 19 -1 32 21 24
41 -3 7 -6 3 -6 -9z"/>
<path d="M5450 483 c0 -10 4 -14 8 -8 4 6 11 13 16 18 5 4 2 7 -7 7 -10 0 -17
-8 -17 -17z"/>
<path d="M4097 473 c5 -13 2 -15 -17 -10 -16 4 -20 3 -12 -5 14 -14 42 -3 42
17 0 8 -4 15 -10 15 -5 0 -7 -7 -3 -17z"/>
<path d="M4692 470 c0 -14 2 -19 5 -12 2 6 2 18 0 25 -3 6 -5 1 -5 -13z"/>
<path d="M4621 464 c0 -11 3 -14 6 -6 3 7 2 16 -1 19 -3 4 -6 -2 -5 -13z"/>
<path d="M5515 470 c6 -10 4 -12 -11 -6 -15 6 -17 5 -6 -5 9 -9 15 -10 23 -2
8 8 7 13 -2 18 -8 6 -10 4 -4 -5z"/>
<path d="M4950 456 c7 -7 13 -7 20 0 6 6 3 10 -10 10 -13 0 -16 -4 -10 -10z"/>
</g>
</svg>
